<svg xmlns="http://www.w3.org/2000/svg" xmlns:xlink="http://www.w3.org/1999/xlink" width="350" zoomAndPan="magnify" viewBox="230 220 350 315" height="315" preserveAspectRatio="xMidYMid meet" version="1.0"><defs><clipPath id="47e8bd4f7d"><path d="M 243 283 L 567 283 L 567 522 L 243 522 Z M 243 283 " clip-rule="nonzero"/></clipPath><clipPath id="589b668382"><path d="M 266 252 L 483 252 L 483 357 L 266 357 Z M 266 252 " clip-rule="nonzero"/></clipPath><clipPath id="8b254ddbc4"><path d="M 273.027344 227.109375 L 489.898438 277.960938 L 470.035156 362.664062 L 253.167969 311.8125 Z M 273.027344 227.109375 " clip-rule="nonzero"/></clipPath><clipPath id="0a3f50290a"><path d="M 273.027344 227.109375 L 489.898438 277.960938 L 470.035156 362.664062 L 253.167969 311.8125 Z M 273.027344 227.109375 " clip-rule="nonzero"/></clipPath></defs><g clip-path="url(#47e8bd4f7d)"><path fill="#4d6bfe" d="M 563.597656 303.507812 C 560.167969 301.832031 558.683594 305.03125 556.6875 306.664062 C 555.996094 307.191406 555.417969 307.882812 554.835938 308.503906 C 549.816406 313.863281 543.957031 317.371094 536.300781 316.953125 C 525.109375 316.332031 515.550781 319.84375 507.101562 328.402344 C 505.304688 317.84375 499.339844 311.554688 490.265625 307.503906 C 485.515625 305.398438 480.707031 303.304688 477.375 298.726562 C 475.050781 295.472656 474.417969 291.84375 473.257812 288.277344 C 472.511719 286.117188 471.769531 283.917969 469.300781 283.554688 C 466.601562 283.136719 465.546875 285.390625 464.496094 287.28125 C 460.269531 295.003906 458.636719 303.507812 458.796875 312.121094 C 459.160156 331.507812 467.34375 346.949219 483.609375 357.925781 C 485.460938 359.179688 485.933594 360.449219 485.351562 362.285156 C 484.246094 366.066406 482.921875 369.738281 481.761719 373.53125 C 481.019531 375.949219 479.910156 376.460938 477.320312 375.421875 C 468.480469 371.621094 460.667969 366.3125 453.882812 359.492188 C 442.3125 348.3125 431.863281 335.972656 418.824219 326.308594 C 415.800781 324.074219 412.699219 321.957031 409.523438 319.949219 C 396.226562 307.03125 411.277344 296.417969 414.761719 295.164062 C 418.40625 293.839844 416.015625 289.332031 404.242188 289.386719 C 392.472656 289.441406 381.699219 293.367188 367.96875 298.621094 C 365.925781 299.402344 363.832031 300.019531 361.691406 300.46875 C 348.789062 298.039062 335.816406 297.578125 322.769531 299.09375 C 297.324219 301.925781 277.007812 313.96875 262.0625 334.503906 C 244.105469 359.179688 239.882812 387.234375 245.050781 416.476562 C 250.492188 447.308594 266.234375 472.835938 290.410156 492.789062 C 315.496094 513.484375 344.371094 523.625 377.324219 521.679688 C 397.332031 520.53125 419.621094 517.847656 444.742188 496.570312 C 451.089844 499.730469 457.730469 500.984375 468.773438 501.929688 C 477.277344 502.726562 485.460938 501.523438 491.792969 500.203125 C 501.714844 498.097656 501.027344 488.902344 497.449219 487.226562 C 468.355469 473.675781 474.742188 479.195312 468.921875 474.726562 C 483.71875 457.230469 505.992188 439.058594 514.714844 380.1875 C 515.390625 375.503906 514.808594 372.558594 514.714844 368.78125 C 514.660156 366.484375 515.1875 365.578125 517.820312 365.324219 C 525.195312 364.558594 532.144531 362.421875 538.675781 358.910156 C 557.523438 348.609375 565.136719 331.707031 566.933594 311.429688 C 567.203125 308.328125 566.878906 305.128906 563.597656 303.492188 Z M 399.34375 486 C 371.140625 463.832031 357.464844 456.53125 351.824219 456.839844 C 346.53125 457.164062 347.488281 463.199219 348.652344 467.140625 C 349.867188 471.027344 351.445312 473.703125 353.660156 477.117188 C 355.199219 479.371094 356.25 482.734375 352.132812 485.257812 C 343.046875 490.875 327.265625 483.367188 326.523438 483.003906 C 308.152344 472.175781 292.773438 457.894531 281.960938 438.359375 C 271.511719 419.554688 265.4375 399.382812 264.4375 377.851562 C 264.167969 372.640625 265.695312 370.804688 270.878906 369.859375 C 277.730469 368.546875 284.609375 368.371094 291.519531 369.332031 C 320.300781 373.546875 344.789062 386.410156 365.335938 406.78125 C 377.054688 418.390625 385.925781 432.257812 395.0625 445.808594 C 404.785156 460.203125 415.234375 473.917969 428.542969 485.148438 C 433.242188 489.089844 436.980469 492.089844 440.574219 494.289062 C 429.746094 495.503906 411.683594 495.773438 399.34375 486 Z M 412.84375 399.058594 C 412.84375 398.726562 412.882812 398.394531 412.960938 398.066406 C 413.039062 397.742188 413.15625 397.429688 413.3125 397.132812 C 413.46875 396.835938 413.65625 396.5625 413.878906 396.3125 C 414.101562 396.058594 414.347656 395.839844 414.625 395.648438 C 414.902344 395.457031 415.195312 395.300781 415.507812 395.183594 C 415.820312 395.0625 416.144531 394.984375 416.476562 394.945312 C 416.8125 394.902344 417.144531 394.90625 417.476562 394.945312 C 417.808594 394.984375 418.132812 395.066406 418.445312 395.183594 C 418.84375 395.328125 419.214844 395.53125 419.550781 395.789062 C 419.886719 396.046875 420.175781 396.347656 420.417969 396.699219 C 420.660156 397.046875 420.84375 397.421875 420.96875 397.828125 C 421.089844 398.234375 421.152344 398.648438 421.144531 399.074219 C 421.148438 399.347656 421.121094 399.617188 421.066406 399.886719 C 421.015625 400.15625 420.933594 400.417969 420.832031 400.671875 C 420.726562 400.925781 420.597656 401.164062 420.445312 401.390625 C 420.289062 401.621094 420.117188 401.828125 419.921875 402.023438 C 419.726562 402.214844 419.515625 402.386719 419.285156 402.539062 C 419.058594 402.6875 418.816406 402.816406 418.5625 402.917969 C 418.308594 403.019531 418.046875 403.097656 417.777344 403.148438 C 417.507812 403.199219 417.234375 403.222656 416.960938 403.21875 C 416.6875 403.21875 416.417969 403.191406 416.152344 403.140625 C 415.886719 403.085938 415.625 403.007812 415.375 402.902344 C 415.125 402.800781 414.886719 402.671875 414.660156 402.519531 C 414.433594 402.367188 414.226562 402.195312 414.035156 402 C 413.84375 401.808594 413.675781 401.597656 413.527344 401.371094 C 413.375 401.140625 413.25 400.902344 413.148438 400.648438 C 413.046875 400.398438 412.972656 400.136719 412.925781 399.871094 C 412.875 399.601562 412.851562 399.332031 412.855469 399.058594 Z M 454.828125 420.605469 C 452.128906 421.699219 449.441406 422.644531 446.863281 422.765625 C 444.925781 422.832031 443.03125 422.574219 441.179688 421.984375 C 439.332031 421.394531 437.632812 420.511719 436.089844 419.335938 C 432.390625 416.230469 429.746094 414.503906 428.636719 409.105469 C 428.253906 406.445312 428.324219 403.800781 428.855469 401.164062 C 429.800781 396.75 428.746094 393.917969 425.628906 391.351562 C 423.101562 389.246094 419.878906 388.664062 416.339844 388.664062 C 415.109375 388.59375 413.96875 388.242188 412.910156 387.613281 C 411.425781 386.882812 410.210938 385.046875 411.371094 382.777344 C 411.75 382.050781 413.53125 380.269531 413.964844 379.945312 C 418.769531 377.21875 424.320312 378.109375 429.433594 380.160156 C 434.1875 382.105469 437.777344 385.667969 442.949219 390.71875 C 448.226562 396.804688 449.183594 398.492188 452.195312 403.054688 C 454.570312 406.632812 456.730469 410.304688 458.203125 414.503906 C 459.109375 417.136719 457.945312 419.28125 454.828125 420.605469 Z M 454.828125 420.605469 " fill-opacity="1" fill-rule="nonzero"/></g><g clip-path="url(#589b668382)"><g clip-path="url(#8b254ddbc4)"><g clip-path="url(#0a3f50290a)"><path fill="#4d6bfe" d="M 481.699219 303.742188 L 386.289062 254.601562 C 383.085938 252.953125 379.542969 252.121094 376.011719 252.191406 L 268.632812 253.785156 C 266.761719 253.792969 266.160156 256.34375 267.835938 257.1875 L 314.738281 281.34375 C 344.910156 279.597656 375.347656 286.285156 403 298.152344 C 374.558594 288.042969 343.199219 283.382812 313.292969 287.511719 L 309.953125 301.757812 C 309.667969 302.964844 310.621094 304.007812 311.835938 303.921875 C 329.160156 302.75 348.414062 304.195312 368.117188 308.816406 C 387.824219 313.4375 405.714844 320.699219 420.78125 329.464844 C 421.832031 330.085938 423.078125 329.554688 423.359375 328.351562 L 428.148438 307.9375 L 451.1875 307.582031 L 442.246094 345.714844 L 441.890625 345.632812 C 441.113281 345.449219 440.324219 345.9375 440.140625 346.71875 L 438.496094 353.734375 C 438.3125 354.515625 438.800781 355.300781 439.582031 355.484375 L 443.835938 356.484375 C 444.613281 356.664062 445.402344 356.175781 445.585938 355.398438 L 447.230469 348.378906 C 447.414062 347.601562 446.925781 346.8125 446.144531 346.628906 L 445.789062 346.546875 L 454.929688 307.5625 L 480.902344 307.148438 C 482.84375 307.152344 483.441406 304.601562 481.699219 303.746094 Z M 481.699219 303.742188 " fill-opacity="1" fill-rule="nonzero"/></g></g></g></svg>
