<svg version="1.1" id="Layer_1" xmlns="http://www.w3.org/2000/svg" xmlns:xlink="http://www.w3.org/1999/xlink" x="0px" y="0px"
	 width="100%" viewBox="0 0 1254 1254" enable-background="new 0 0 1254 1254" xml:space="preserve">
<path fill="#FEFEFE" opacity="1.000000" stroke="none"
	d="
M74.666664,671.000000
	C75.111107,671.000000 75.555557,671.000000 76.389839,671.544128
	C78.234291,672.845215 80.078743,674.146240 80.871246,674.705261
	C79.710014,678.182434 78.797951,680.726074 78.020874,683.310303
	C77.550392,684.874939 77.401772,686.537720 76.914330,688.095642
	C74.753296,695.002441 70.767303,701.742676 75.783890,709.113220
	C76.653244,710.390503 76.631889,712.291077 76.960320,713.916260
	C78.069580,719.404785 79.166397,724.895874 80.233688,730.392700
	C80.547249,732.007690 81.223671,733.742676 80.913017,735.253967
	C79.814926,740.595642 79.229706,745.355652 86.862480,745.603455
	C87.255081,745.616150 87.678986,746.160767 88.004036,746.531677
	C92.214935,751.335938 96.410553,756.153625 100.017845,760.289062
	C98.813316,762.886536 98.156746,764.302368 97.500160,765.718201
	C98.906105,765.505676 100.331497,765.378967 101.714607,765.065613
	C107.676918,763.714844 113.415276,765.551575 115.045288,770.526978
	C116.781975,775.827942 119.432571,777.648010 125.100586,778.500793
	C134.513092,779.916870 141.629654,776.871033 147.837585,770.603394
	C150.646835,767.767090 153.475632,767.160400 156.757996,768.961975
	C159.026535,770.206970 161.027420,771.939636 163.383484,773.622620
	C164.195694,772.424194 165.837982,771.109070 165.691101,770.039734
	C164.655014,762.496582 169.899368,763.308716 174.502045,762.957520
	C176.574783,762.799438 179.670288,762.881897 180.484314,761.652161
	C184.157166,756.103577 188.356491,755.011658 194.807281,756.761902
	C200.617615,758.338379 205.298050,760.912903 206.950455,766.656189
	C208.150452,770.827026 210.579514,773.195862 215.139313,773.012573
	C220.330750,772.803894 223.295258,775.580139 226.268814,779.745178
	C228.266830,782.543701 232.567520,783.825623 236.007111,785.421570
	C238.212296,786.444824 240.790787,786.633545 243.081787,787.510254
	C245.382919,788.390930 247.432236,790.256592 249.769821,790.660095
	C261.582489,792.699768 273.453217,794.403198 285.129364,796.197815
	C289.960724,788.010559 298.463318,788.130310 307.074738,787.750549
	C305.228180,782.927490 306.569611,780.702942 311.349701,780.581482
	C312.161926,780.560852 313.047852,778.690918 313.688049,777.555908
	C315.537628,774.276855 316.463837,769.391968 319.228027,767.933044
	C325.545197,764.598633 324.606079,758.000916 327.327454,753.216919
	C329.379913,749.608948 328.453369,744.393372 329.243958,739.963135
	C331.035858,729.921875 333.325775,719.962891 334.862061,709.886353
	C335.382965,706.469543 337.343170,705.603821 339.755768,705.405518
	C343.913147,705.063843 348.118896,705.310852 352.550568,705.310852
	C354.541504,699.613464 359.376190,697.856750 365.103760,696.875671
	C368.425079,696.306763 372.434906,695.348877 374.544159,693.084351
	C378.263245,689.091492 381.592010,685.737732 387.923553,687.993408
	C385.940857,682.444641 389.176239,679.741882 392.403625,677.425537
	C397.804016,673.549744 401.255371,668.376099 403.738556,662.379395
	C406.166656,656.515747 408.638672,650.670227 411.270935,644.388306
	C408.988495,639.442505 409.250580,638.039673 413.961578,634.165161
	C412.554688,633.391357 411.303497,632.734314 410.082764,632.024841
	C407.967682,630.795654 405.258911,629.999329 403.887848,628.194397
	C400.449768,623.668396 397.523163,618.737000 394.638794,613.823059
	C394.128937,612.954529 394.628632,611.328369 394.984833,610.149597
	C395.825623,607.367188 396.860901,604.643494 398.084076,601.130615
	C398.983887,601.226807 401.179321,601.461609 403.401184,601.699219
	C403.327667,597.345947 400.261017,596.705811 394.388184,599.651428
	C393.596405,598.933472 392.543365,598.291443 391.924805,597.360657
	C389.827301,594.204651 387.891754,590.941284 385.878632,587.728760
	C383.622864,584.128967 373.313354,580.300415 369.241394,581.598267
	C368.871948,581.716003 368.663330,582.338501 368.435577,582.650513
	C369.071716,584.091980 369.659058,585.422913 369.613831,586.925476
	C368.743011,586.968384 367.872162,587.011353 366.999969,586.274048
	C366.125732,581.137451 363.802521,579.074768 358.782593,579.003296
	C356.950287,578.977173 355.043243,579.292725 353.311523,578.871704
	C352.202728,578.602173 350.548462,577.298523 350.516724,576.409302
	C350.312317,570.685608 352.355072,565.904053 357.172028,562.431702
	C358.739197,561.301941 359.967255,559.706665 361.374237,558.348877
	C366.474731,553.426941 371.143402,547.907288 376.822784,543.779663
	C381.969208,540.039368 387.363800,536.683105 391.485596,531.796509
	C399.989929,521.714233 403.668701,509.304504 407.204803,496.997528
	C407.832947,494.811279 405.463654,491.258972 403.603882,489.085999
	C402.736237,488.072235 399.706329,488.489105 397.785980,488.885254
	C393.990723,489.668152 390.106537,492.140137 386.584747,491.636505
	C381.166779,490.861664 378.478607,493.574310 376.040253,497.093750
	C373.715668,500.448975 371.093964,500.706085 367.910492,498.914917
	C364.915314,497.229584 364.047424,495.021210 366.297516,491.930237
	C366.768829,491.282806 366.460602,489.732758 365.994080,488.882568
	C365.769165,488.472656 364.111786,488.357697 363.502197,488.742126
	C361.683868,489.888855 360.063019,491.348694 358.365021,492.686218
	C358.828400,492.829102 359.291748,492.971985 359.755096,493.114868
	C359.118500,495.574890 359.242493,498.803040 357.691132,500.339325
	C354.179565,503.816589 348.359619,503.115021 344.676208,499.700409
	C343.959564,499.036072 343.077087,498.463196 342.169403,498.108002
	C338.899719,496.828522 337.231140,494.647919 336.875183,491.013855
	C336.615356,488.361542 335.460999,486.097351 331.891174,488.325623
	C329.888947,489.575409 318.474854,485.763123 317.578125,483.667145
	C317.122253,482.601562 317.409180,481.129608 317.628601,479.888794
	C317.844910,478.665222 318.399872,477.501556 318.806274,476.311615
	C318.384918,476.571686 317.963531,476.831726 317.542175,477.091766
	C313.532990,473.471680 309.984528,468.943939 305.335632,466.584015
	C302.696472,465.244354 298.230804,467.345215 294.642151,468.141876
	C293.719269,468.346741 292.971710,469.448975 292.215546,470.210419
	C292.054718,470.372314 292.126770,470.872681 292.227478,471.171234
	C294.339447,477.433411 289.869354,480.730957 286.153534,484.177917
	C282.723816,487.359497 282.648956,488.998810 286.301636,492.210999
	C287.363647,493.144958 288.645905,494.399261 288.835815,495.656433
	C289.710938,501.449463 288.192902,507.109314 290.331268,513.327759
	C291.875214,517.817688 293.908051,520.796387 296.826569,523.982666
	C301.317535,528.885620 307.229248,532.773376 308.222656,540.320007
	C308.442841,541.992615 310.611938,544.233032 312.306213,544.709534
	C315.492920,545.605774 315.185791,547.348328 314.636749,549.585205
	C314.089874,551.813049 313.718231,554.109863 312.918213,556.244629
	C310.838348,561.794373 310.529877,568.796509 302.267639,569.468628
	C302.163940,570.709778 302.271942,571.747498 301.962158,572.640198
	C301.312347,574.512878 300.855621,577.369080 299.560822,577.873413
	C297.874451,578.530151 295.325317,577.594788 293.387726,576.775940
	C291.977600,576.179932 290.909332,574.709534 289.771179,573.548157
	C286.821594,570.538330 284.652313,566.833374 279.421570,566.650513
	C277.391113,566.579529 275.239563,563.728149 273.687592,561.722107
	C273.392944,561.341248 275.771698,559.045837 276.701721,557.503906
	C277.229553,556.628784 277.823364,555.232971 277.469635,554.540649
	C277.099518,553.816162 275.563354,553.204163 274.654083,553.338196
	C272.715240,553.624023 270.845459,554.403442 268.959412,555.017517
	C264.013397,556.627686 260.764404,553.367065 257.550110,550.706055
	C254.918564,548.527466 255.090195,545.953186 257.229218,542.910522
	C259.421204,539.792542 256.919067,535.673645 253.017380,535.000122
	C248.978714,534.302979 248.309158,532.635010 251.008362,529.544861
	C252.545059,527.785583 254.334259,526.239380 256.069336,524.662842
	C258.546478,522.411987 256.911957,518.905090 251.929092,515.292114
	C250.540131,512.521729 249.547638,509.883575 252.664658,507.409882
	C253.338531,506.875061 253.217285,505.338348 253.462280,504.263184
	C252.441315,504.084564 251.370407,503.619385 250.409760,503.786774
	C248.381805,504.140167 246.411545,504.824493 243.555969,505.610107
	C242.404007,504.302826 240.700653,502.679321 239.362930,500.796173
	C234.565231,494.042114 230.083344,487.058868 221.695602,484.004791
	C220.304291,483.498199 219.471725,481.588654 218.235489,480.491272
	C216.691818,479.120972 214.991577,477.927856 213.369507,476.644867
	C210.332474,474.242706 206.432236,472.368530 204.519302,469.269653
	C202.665863,466.267151 201.054764,465.075073 197.672623,464.845398
	C195.575317,464.702942 193.319717,463.372223 191.604385,461.991821
	C189.320587,460.153961 187.493195,457.748962 185.947189,456.097565
	C182.907578,457.571198 180.669785,459.663025 179.015579,459.273895
	C173.503738,457.977295 167.335205,458.633514 162.643387,454.294678
	C161.887375,453.595612 159.268600,453.648895 158.545074,454.379120
	C153.382950,459.588684 147.249451,460.007874 140.723145,458.351349
	C137.111694,457.434662 134.755814,458.600189 133.662277,461.918152
	C133.087234,463.662994 133.320694,465.674286 133.130661,468.404572
	C126.856316,466.161987 120.927132,466.735382 115.722046,470.990326
	C113.933311,472.452576 111.439232,473.565613 110.496948,475.452301
	C107.786041,480.880127 105.885689,486.707672 103.294472,492.202576
	C102.038483,494.865997 102.473061,496.236542 104.751717,497.994324
	C107.293137,499.954742 109.325714,502.574799 111.599945,505.306610
	C111.567001,505.586914 111.444923,505.820740 110.405228,506.003754
	C108.072723,506.159912 100.236778,513.188843 100.195107,515.217407
	C100.185783,515.671387 100.404259,516.155701 100.605980,516.584534
	C104.931534,525.780029 104.543861,528.603577 96.970512,535.290710
	C94.116814,537.810425 94.926414,539.069946 97.368294,540.989624
	C99.133949,542.377686 100.471527,544.310242 101.190598,546.100830
	C95.784348,546.733887 90.350510,547.195435 84.981331,548.059082
	C81.280479,548.654236 76.951523,548.834595 74.157761,550.898499
	C66.940956,556.229858 60.112358,561.464050 50.312611,556.935181
	C49.749641,558.818481 49.268906,560.033630 49.028835,561.294617
	C47.647705,568.549500 41.170876,572.793823 34.087902,571.222046
	C31.010475,570.539246 29.359081,572.211426 30.280788,575.143188
	C32.043541,580.750122 29.365009,584.715149 26.152981,588.692627
	C24.963802,590.165100 23.552834,591.724670 23.094929,593.468201
	C22.019648,597.562622 20.014959,596.131470 18.143351,594.504761
	C16.626640,593.186462 15.465661,591.458984 14.146906,589.912964
	C13.530874,590.162292 12.914843,590.411682 12.298811,590.661011
	C12.718325,592.329346 12.775804,595.213745 13.617435,595.464233
	C18.279303,596.852295 16.777029,599.510681 14.520484,603.318359
	C20.017029,600.702209 20.734924,603.492188 21.050655,606.913818
	C21.262676,609.211548 21.561747,611.513977 22.021223,613.773804
	C23.450697,620.804382 24.908606,627.831238 26.548773,634.814148
	C26.749409,635.668396 28.013763,636.570312 28.974049,636.899963
	C34.942303,638.948730 39.787422,645.134888 39.960854,651.494141
	C40.034782,654.204956 40.623154,656.276306 43.805630,655.957947
	C48.554909,655.482727 52.512543,656.802734 56.148003,659.960571
	C58.471447,661.978699 61.363102,663.342712 64.000000,665.750000
	C64.000000,666.500000 64.000000,667.250000 63.468868,668.431396
	C64.894798,670.272705 65.976524,672.984131 67.839310,673.721130
	C69.875542,674.526672 73.409828,675.146912 74.666664,671.000000
M461.482880,653.111084
	C481.915253,653.179749 493.636200,644.454773 496.921417,626.730713
	C500.627838,606.734253 489.483734,588.947021 470.740906,586.585388
	C461.281616,585.393433 451.548187,586.377197 441.668610,586.377197
	C441.668610,608.591370 441.668610,630.754944 441.668610,653.098022
	C448.223969,653.098022 454.360809,653.098022 461.482880,653.111084
M652.275879,640.695923
	C652.761414,639.280090 653.346924,637.889771 653.717041,636.444397
	C657.474976,621.766663 649.288086,607.113342 635.933105,604.514343
	C629.208679,603.205688 623.511108,605.344604 618.264709,610.164856
	C617.868225,608.337646 617.579834,607.008850 617.296204,605.701782
	C613.725647,605.701782 610.498718,605.701782 607.247498,605.701782
	C607.247498,628.390564 607.247498,650.666016 607.247498,673.248169
	C610.881348,673.248169 614.249878,673.248169 617.973267,673.248169
	C617.973267,665.123108 617.973267,657.373474 617.973267,649.418091
	C632.722229,658.375732 644.461914,655.505005 652.275879,640.695923
M681.342651,611.398193
	C677.359131,609.737488 673.127136,607.682739 674.065002,602.665039
	C674.546387,600.089478 677.074402,596.867859 679.477661,595.875122
	C686.353271,593.034851 691.624512,596.347534 695.637329,602.433777
	C698.703003,600.768188 701.568848,599.211121 704.369324,597.689575
	C700.828979,587.239624 686.738586,581.661133 675.311401,585.902771
	C668.022400,588.608276 663.130859,593.579590 662.376953,601.523438
	C661.621460,609.484497 665.329895,615.383545 672.314819,619.050781
	C675.683594,620.819458 679.360779,621.991821 682.850891,623.541138
	C685.878113,624.884949 689.084412,626.023254 691.776123,627.882751
	C697.094238,631.556580 696.871216,639.658203 691.000793,642.257080
	C687.538696,643.789856 682.568665,644.364197 679.200378,643.032837
	C675.120422,641.420227 672.015564,637.340515 667.783508,633.726013
	C665.901367,634.730286 662.759155,636.406860 659.688538,638.045227
	C665.615662,654.687500 688.855591,660.278442 701.249146,648.501770
	C710.370239,639.834656 708.702026,624.325134 697.665344,618.260986
	C692.745178,615.557617 687.263916,613.875610 681.342651,611.398193
M952.779114,619.693542
	C947.510986,617.293945 942.228394,614.925354 936.980896,612.481506
	C934.439758,611.297974 931.636169,610.371460 929.525330,608.632141
	C924.597839,604.571594 926.057983,597.608276 932.145142,595.681335
	C939.118286,593.473938 944.467834,596.028809 948.415710,602.249451
	C951.479248,600.599854 954.328613,599.065552 957.045105,597.602844
	C954.416687,587.081299 939.491211,582.281494 928.808289,585.721863
	C920.619751,588.359009 915.911316,594.042664 915.372375,601.903748
	C914.803589,610.198975 918.705078,615.963196 925.949768,619.515930
	C929.518433,621.265991 933.342163,622.488586 937.003723,624.058838
	C939.589478,625.167542 942.339294,626.120789 944.591125,627.735779
	C950.205872,631.762634 949.258728,639.911255 943.031067,642.828064
	C935.777710,646.225159 927.518250,643.400940 923.868591,636.286377
	C923.299500,635.177124 922.678223,634.094543 921.979553,632.813416
	C918.590515,634.715881 915.589539,636.400513 912.661194,638.044373
	C916.622620,650.822876 930.829285,657.537964 944.860718,653.579468
	C960.367859,649.204590 964.863647,631.466614 952.779114,619.693542
M819.236938,600.506104
	C819.236938,617.923523 819.236938,635.341003 819.236938,652.689453
	C823.316345,652.689453 826.550537,652.689453 829.849426,652.689453
	C830.661377,645.357788 827.603027,636.961914 837.202515,632.745117
	C841.017761,638.549011 844.771851,644.408997 848.714966,650.138977
	C849.556091,651.361206 851.003601,652.790344 852.311401,652.945251
	C855.667419,653.342957 859.101929,653.078064 863.173401,653.078064
	C856.575439,643.128540 850.451355,633.893494 844.180725,624.437561
	C850.122009,618.234436 855.883728,612.218689 861.895569,605.941833
	C853.311951,604.221558 846.646790,605.439148 841.541077,612.501587
	C838.531067,616.665161 834.496155,620.087830 830.922241,623.843689
	C830.539429,623.647827 830.156677,623.452026 829.773926,623.256165
	C829.773926,610.545776 829.773926,597.835449 829.773926,585.169067
	C825.946655,585.169067 822.695374,585.169067 819.236389,585.169067
	C819.236389,590.194763 819.236389,594.852173 819.236938,600.506104
M745.111694,642.864258
	C734.570679,648.089844 724.383728,642.750854 725.047485,631.924194
	C736.283142,631.924194 747.548645,631.924194 758.739014,631.924194
	C760.735352,619.059021 754.086060,607.746704 743.166504,604.911316
	C730.865784,601.717346 718.687500,608.093201 714.679077,619.825684
	C710.232361,632.841064 715.301331,647.148254 726.144897,652.187927
	C738.001770,657.698486 751.419312,654.157715 757.388184,643.630798
	C754.996399,642.011841 752.576111,640.373535 750.069397,638.676758
	C748.463928,640.088623 747.113525,641.276184 745.111694,642.864258
M776.989075,632.335083
	C788.270874,632.335083 799.552734,632.335083 811.030579,632.335083
	C812.047180,622.102478 809.948303,613.659485 801.676270,607.985657
	C794.018860,602.733398 785.630981,602.599670 777.517639,606.922058
	C762.962280,614.676453 760.783691,638.435730 773.466736,649.003235
	C786.296387,659.692810 805.506714,653.922180 809.706848,643.520081
	C807.173584,641.968323 804.579346,640.379211 802.125671,638.876282
	C795.629700,644.819031 791.114441,646.393921 785.604065,644.546448
	C780.191040,642.731628 777.163513,638.866882 776.989075,632.335083
M541.387146,632.013550
	C543.644104,632.013550 545.901123,632.013550 548.041992,632.013550
	C549.502747,621.389893 545.975586,611.995056 538.686157,607.729553
	C530.663330,603.034973 522.201538,602.468323 514.053589,607.406921
	C500.328461,615.725952 498.458344,637.832764 510.330841,648.657593
	C520.963501,658.351990 541.634949,655.772461 546.863464,643.538147
	C544.477112,641.988403 542.026733,640.397034 539.431824,638.711853
	C534.074219,644.667297 527.908875,647.065125 520.567322,643.490051
	C516.049561,641.289978 514.084778,637.352905 513.918518,632.048706
	C523.140991,632.048706 531.779846,632.048706 541.387146,632.013550
M1182.623657,638.792908
	C1186.499878,648.593201 1193.743408,654.074219 1204.206665,654.585999
	C1213.149658,655.023254 1220.859131,652.226746 1226.001221,643.609741
	C1223.202393,641.861877 1220.615723,640.246582 1218.150146,638.706909
	C1211.059937,645.284851 1205.436768,646.763550 1199.451660,643.580383
	C1195.044189,641.236267 1192.623901,637.586182 1192.857300,631.932495
	C1204.468628,631.932495 1215.704102,631.932495 1226.884155,631.932495
	C1228.342285,618.773071 1223.083618,609.183594 1212.633789,605.432495
	C1202.265137,601.710449 1191.010376,605.604187 1184.874268,615.347473
	C1180.418701,622.422302 1180.588867,630.176819 1182.623657,638.792908
M555.601868,636.914734
	C559.373413,648.333435 566.996460,654.333557 578.218140,654.715881
	C587.527222,655.033081 595.915466,650.526672 598.900940,643.328186
	C596.441772,641.833679 593.932739,640.308899 591.269531,638.690369
	C586.235962,644.470032 580.380371,646.962708 573.299316,643.827332
	C568.488159,641.696960 566.342468,637.566101 565.866394,631.932495
	C577.569946,631.932495 588.847351,631.932495 600.045288,631.932495
	C602.046631,620.720215 596.955017,610.200317 587.851501,606.180298
	C577.627563,601.665466 566.440491,604.446960 559.650635,613.296997
	C554.383301,620.162659 553.908875,627.982788 555.601868,636.914734
M1033.914795,621.603271
	C1031.991211,629.732117 1032.622559,637.484741 1037.367065,644.605225
	C1047.788940,660.246033 1072.552002,655.809326 1077.061157,643.525330
	C1074.718872,641.981262 1072.282104,640.375000 1069.931885,638.825745
	C1062.397583,645.454163 1057.039307,646.703186 1050.806030,643.379639
	C1046.362183,641.010071 1044.126709,637.365784 1044.337769,631.696533
	C1055.908325,631.696533 1067.139160,631.696533 1078.432007,631.696533
	C1079.236694,625.053345 1078.521484,619.223450 1075.009521,613.983032
	C1069.979736,606.477356 1062.725830,603.250427 1053.945190,604.268921
	C1043.930908,605.430481 1037.138794,611.002075 1033.914795,621.603271
M1117.759888,639.486084
	C1117.759888,643.910706 1117.759888,648.335266 1117.759888,652.846924
	C1121.661743,652.846924 1124.902100,652.846924 1128.184570,652.846924
	C1128.184570,641.261292 1128.712891,629.940186 1128.018677,618.694519
	C1127.456055,609.582764 1120.497559,603.697632 1111.378418,604.385681
	C1106.409668,604.760620 1101.600708,607.254578 1096.552856,608.845398
	C1096.485596,608.514099 1096.200562,607.111023 1095.935181,605.804199
	C1092.428467,605.804199 1089.212769,605.804199 1086.013306,605.804199
	C1086.013306,621.727783 1086.013306,637.254028 1086.013306,652.775513
	C1089.695312,652.775513 1092.928345,652.775513 1096.060547,652.775513
	C1096.253662,652.140808 1096.427002,651.829224 1096.432373,651.514709
	C1096.514404,646.689209 1096.563843,641.863159 1096.642334,637.037659
	C1096.718140,632.387512 1096.361084,627.671875 1097.020142,623.104126
	C1097.905518,616.968079 1103.180420,613.421448 1109.347290,614.023254
	C1114.866943,614.561951 1117.386963,617.675598 1117.608276,624.510437
	C1117.759277,629.167236 1117.714600,633.830322 1117.759888,639.486084
M1007.387634,642.090881
	C1003.911438,639.373291 1001.000244,637.758057 996.976013,642.164551
	C993.669617,645.785034 988.638245,645.977356 983.964233,643.666809
	C978.706543,641.067566 975.459351,634.932800 976.047363,628.130493
	C976.546692,622.354858 978.640503,617.342651 984.479492,615.022583
	C990.760315,612.526978 995.847534,614.591492 999.977539,619.637085
	C1000.159180,619.858948 1000.563843,619.898193 1001.292542,620.199402
	C1003.693970,618.724731 1006.320496,617.111938 1010.291138,614.673706
	C1006.038330,611.415527 1002.930847,608.023560 999.077393,606.280945
	C989.322083,601.869080 978.206787,604.348572 971.492676,611.630249
	C964.464783,619.252258 962.781433,631.491028 967.442993,641.071838
	C974.666565,655.917969 995.067627,659.495544 1006.088318,647.717773
	C1007.253845,646.472290 1007.379700,644.253906 1007.387634,642.090881
M1160.293457,604.162231
	C1146.464600,604.076538 1137.152954,611.306763 1134.866699,623.905273
	C1132.444092,637.256165 1138.543335,649.163635 1149.883667,653.222717
	C1160.977051,657.193298 1172.834595,653.276245 1178.315552,643.518250
	C1175.597046,641.820679 1172.862549,640.113159 1170.212036,638.458069
	C1163.288818,645.886536 1155.740845,646.860840 1149.816528,641.417786
	C1144.327271,636.374390 1143.782349,624.169312 1148.787842,618.373230
	C1154.146362,612.168396 1161.135742,612.676025 1170.248169,620.098511
	C1172.825317,618.610779 1175.486694,617.074341 1178.306396,615.446594
	C1174.455688,608.133484 1168.475952,605.157471 1160.293457,604.162231
M1015.208801,615.539551
	C1015.208801,627.954102 1015.208801,640.368591 1015.208801,652.776978
	C1019.226013,652.776978 1022.607544,652.776978 1026.029785,652.776978
	C1026.029785,636.828186 1026.029785,621.261169 1026.029785,605.668945
	C1022.228943,605.668945 1018.845764,605.668945 1015.196777,605.668945
	C1015.196777,608.929688 1015.196777,611.744080 1015.208801,615.539551
M870.773560,656.092102
	C865.867493,656.399597 865.398743,657.562439 867.249573,664.793945
	C881.336487,664.793945 895.414612,664.793945 909.541077,664.793945
	C909.541077,661.710632 909.541077,659.003235 909.541077,656.092957
	C896.661926,656.092957 884.188660,656.092957 870.773560,656.092102
M1019.922058,598.126953
	C1025.498413,597.646973 1028.545654,594.543884 1027.592896,590.172058
	C1026.831665,586.679138 1024.548828,584.632385 1020.988464,584.434143
	C1017.384888,584.233521 1014.828491,585.985474 1014.111694,589.587402
	C1013.274292,593.795288 1015.106079,596.649902 1019.922058,598.126953
z"/>
<path fill="#FDFDFE" opacity="1.000000" stroke="none"
	d="
M370.246368,586.753845
	C369.659058,585.422913 369.071716,584.091980 368.435577,582.650513
	C368.663330,582.338501 368.871948,581.716003 369.241394,581.598267
	C373.313354,580.300415 383.622864,584.128967 385.878632,587.728760
	C387.891754,590.941284 389.827301,594.204651 391.924805,597.360657
	C392.543365,598.291443 393.596405,598.933472 394.388184,599.651428
	C400.261017,596.705811 403.327667,597.345947 403.401184,601.699219
	C401.179321,601.461609 398.983887,601.226807 398.084076,601.130615
	C396.860901,604.643494 395.825623,607.367188 394.984833,610.149597
	C394.628632,611.328369 394.128937,612.954529 394.638794,613.823059
	C397.523163,618.737000 400.449768,623.668396 403.887848,628.194397
	C405.258911,629.999329 407.967682,630.795654 410.082764,632.024841
	C411.303497,632.734314 412.554688,633.391357 413.961578,634.165161
	C409.250580,638.039673 408.988495,639.442505 411.270935,644.388306
	C408.638672,650.670227 406.166656,656.515747 403.738556,662.379395
	C401.255371,668.376099 397.804016,673.549744 392.403625,677.425537
	C389.176239,679.741882 385.940857,682.444641 387.923553,687.993408
	C381.592010,685.737732 378.263245,689.091492 374.544159,693.084351
	C372.434906,695.348877 368.425079,696.306763 365.103760,696.875671
	C359.376190,697.856750 354.541504,699.613464 352.550568,705.310852
	C348.118896,705.310852 343.913147,705.063843 339.755768,705.405518
	C337.343170,705.603821 335.382965,706.469543 334.862061,709.886353
	C333.325775,719.962891 331.035858,729.921875 329.243958,739.963135
	C328.453369,744.393372 329.379913,749.608948 327.327454,753.216919
	C324.606079,758.000916 325.545197,764.598633 319.228027,767.933044
	C316.463837,769.391968 315.537628,774.276855 313.688049,777.555908
	C313.047852,778.690918 312.161926,780.560852 311.349701,780.581482
	C306.569611,780.702942 305.228180,782.927490 307.074738,787.750549
	C298.463318,788.130310 289.960724,788.010559 285.129364,796.197815
	C273.453217,794.403198 261.582489,792.699768 249.769821,790.660095
	C247.432236,790.256592 245.382919,788.390930 243.081787,787.510254
	C240.790787,786.633545 238.212296,786.444824 236.007111,785.421570
	C232.567520,783.825623 228.266830,782.543701 226.268814,779.745178
	C223.295258,775.580139 220.330750,772.803894 215.139313,773.012573
	C210.579514,773.195862 208.150452,770.827026 206.950455,766.656189
	C205.298050,760.912903 200.617615,758.338379 194.807281,756.761902
	C188.356491,755.011658 184.157166,756.103577 180.484314,761.652161
	C179.670288,762.881897 176.574783,762.799438 174.502045,762.957520
	C169.899368,763.308716 164.655014,762.496582 165.691101,770.039734
	C165.837982,771.109070 164.195694,772.424194 163.383484,773.622620
	C161.027420,771.939636 159.026535,770.206970 156.757996,768.961975
	C153.475632,767.160400 150.646835,767.767090 147.837585,770.603394
	C141.629654,776.871033 134.513092,779.916870 125.100586,778.500793
	C119.432571,777.648010 116.781975,775.827942 115.045288,770.526978
	C113.415276,765.551575 107.676918,763.714844 101.714607,765.065613
	C100.331497,765.378967 98.906105,765.505676 97.500168,765.718201
	C98.156746,764.302368 98.813316,762.886536 100.017845,760.289062
	C96.410553,756.153625 92.214935,751.335938 88.004036,746.531677
	C87.678986,746.160767 87.255081,745.616150 86.862480,745.603455
	C79.229706,745.355652 79.814926,740.595642 80.913017,735.253967
	C81.223671,733.742676 80.547249,732.007690 80.233688,730.392700
	C79.166397,724.895874 78.069580,719.404785 76.960320,713.916260
	C76.631889,712.291077 76.653244,710.390503 75.783890,709.113220
	C70.767303,701.742676 74.753296,695.002441 76.914330,688.095642
	C77.401772,686.537720 77.550392,684.874939 78.020874,683.310303
	C78.797951,680.726074 79.710014,678.182434 80.871246,674.705261
	C80.078743,674.146240 78.234291,672.845215 76.348877,670.921997
	C76.605064,669.333252 76.902222,668.366699 77.554077,667.512207
	C80.741577,669.007874 83.574364,670.391479 86.036972,671.963745
	C85.117165,674.173401 84.567528,676.194336 83.893585,678.560547
	C81.383286,690.913879 80.623764,703.002502 82.238586,715.167236
	C84.549767,732.577637 90.963554,747.651917 106.985764,756.885376
	C108.706215,757.876953 111.143486,757.624634 113.539024,758.378723
	C114.391663,759.173584 114.953545,759.538940 115.681358,760.204590
	C117.672188,767.092712 121.340736,772.012756 128.483383,773.034546
	C135.954407,774.103333 141.831909,771.454163 145.580200,764.597107
	C146.034027,763.766846 147.239822,762.904846 148.155380,762.836365
	C162.238205,761.782898 174.867355,756.280212 187.307297,750.199585
	C196.033173,745.934387 193.261444,745.451721 200.213593,751.853821
	C217.171829,767.470398 235.594742,780.575317 258.401489,786.290588
	C285.470581,793.074097 308.269928,782.112610 318.804260,756.289001
	C322.278381,747.772644 324.331940,738.470093 325.664124,729.327209
	C329.021820,706.283203 325.825134,683.531128 321.256439,660.692993
	C326.117126,658.722595 325.437073,662.896545 326.701294,665.029480
	C329.238586,669.310242 331.974640,673.235596 330.230225,678.891724
	C329.264984,682.021423 331.130096,685.305115 334.926727,685.894592
	C339.292084,686.572266 343.768463,686.335876 346.837311,682.553406
	C349.481628,679.294189 352.734680,678.746948 356.587921,678.909973
	C358.242828,678.979980 360.995270,678.521484 361.430725,677.515808
	C363.136719,673.575439 366.932068,673.674133 369.897430,672.111084
	C372.926392,670.514648 375.702667,668.438660 378.105377,666.885559
	C376.804321,663.958008 376.058838,662.280457 375.313324,660.602966
	C377.113556,660.067993 378.884918,659.233154 380.719635,659.056519
	C385.490814,658.597107 389.638184,651.879272 387.957825,647.572449
	C386.087524,647.660828 384.328461,647.743958 382.569397,647.827087
	C383.387512,646.181152 384.191284,644.527832 385.037659,642.896545
	C385.181061,642.620239 385.546844,642.468567 385.743683,642.209167
	C388.475159,638.608948 387.141083,631.347412 383.667267,630.061401
	C381.036591,629.087524 378.553650,627.714722 375.008240,626.052063
	C374.783325,626.052063 372.422943,626.718567 371.749054,625.934937
	C369.052368,622.798828 365.694092,623.041626 362.183197,622.909058
	C360.681549,622.852356 358.392944,622.219971 357.874084,621.158691
	C355.247498,615.786621 347.876312,613.230774 348.782959,605.678345
	C348.907288,604.642700 346.991058,603.202820 345.772034,602.275452
	C345.460114,602.038147 343.661346,602.875244 343.465485,603.504944
	C341.903320,608.525818 340.554535,613.613464 339.184235,618.692505
	C339.131134,618.889343 339.522858,619.206177 339.801270,619.600098
	C341.050201,619.600098 342.391357,619.600098 343.732513,619.600098
	C342.992401,621.700928 341.818054,622.869934 340.461395,623.761536
	C331.392365,629.721558 328.359253,637.007324 331.120087,645.886475
	C332.382080,649.945129 330.736145,650.606873 327.671326,650.977600
	C321.323090,651.745483 319.043945,654.590149 319.161560,661.930298
	C318.452942,663.166260 317.765320,664.104614 316.782898,664.783020
	C316.488068,661.862610 316.488068,659.202148 316.488068,656.755615
	C314.760834,657.854004 313.171082,658.864990 311.700317,659.540894
	C320.574310,646.207764 327.080414,632.107910 332.662964,617.503662
	C340.377228,597.322693 344.648499,576.287415 348.482788,555.149536
	C349.407410,550.052307 351.596649,547.169067 356.786041,546.067200
	C383.848145,540.321533 394.707947,519.889526 402.146179,495.920624
	C396.910217,493.864075 391.902344,494.809204 388.003632,497.313538
	C378.354492,503.511749 368.336609,506.779419 356.684235,506.666779
	C351.925323,506.620789 347.129883,510.352997 342.206940,512.427002
	C339.734650,503.591095 334.801849,496.168365 325.237122,493.510345
	C315.594849,490.830750 309.798187,484.967041 307.086182,475.486053
	C306.619629,473.855103 304.757019,471.622803 303.401306,471.521881
	C301.980133,471.416077 299.778717,473.219208 298.976990,474.744507
	C293.404785,485.345490 291.990692,496.516327 295.373566,508.116730
	C299.244019,521.389099 308.363342,530.772705 318.769104,539.099854
	C321.609314,541.372742 322.662537,543.530762 321.255371,547.191772
	C317.554260,556.821228 314.288330,566.616882 310.701080,576.291443
	C307.831970,584.029114 303.727539,586.313965 295.980377,583.116272
	C289.917603,580.613892 284.182129,576.998230 278.843231,573.129272
	C267.793640,565.121887 257.141174,556.568604 246.253876,548.334412
	C240.078934,543.664246 238.678665,537.328125 243.181458,530.993164
	C245.057632,528.353577 248.068954,526.548279 250.276123,524.103577
	C251.233261,523.043457 251.463028,521.326721 252.016296,519.517456
	C252.006271,518.084473 252.003128,517.042236 252.000000,516.000000
	C256.911957,518.905090 258.546478,522.411987 256.069336,524.662842
	C254.334259,526.239380 252.545059,527.785583 251.008362,529.544861
	C248.309158,532.635010 248.978714,534.302979 253.017380,535.000122
	C256.919067,535.673645 259.421204,539.792542 257.229218,542.910522
	C255.090195,545.953186 254.918564,548.527466 257.550110,550.706055
	C260.764404,553.367065 264.013397,556.627686 268.959412,555.017517
	C270.845459,554.403442 272.715240,553.624023 274.654083,553.338196
	C275.563354,553.204163 277.099518,553.816162 277.469635,554.540649
	C277.823364,555.232971 277.229553,556.628784 276.701721,557.503906
	C275.771698,559.045837 273.392944,561.341248 273.687592,561.722107
	C275.239563,563.728149 277.391113,566.579529 279.421570,566.650513
	C284.652313,566.833374 286.821594,570.538330 289.771179,573.548157
	C290.909332,574.709534 291.977600,576.179932 293.387726,576.775940
	C295.325317,577.594788 297.874451,578.530151 299.560822,577.873413
	C300.855621,577.369080 301.312347,574.512878 301.962158,572.640198
	C302.271942,571.747498 302.163940,570.709778 302.267639,569.468628
	C310.529877,568.796509 310.838348,561.794373 312.918213,556.244629
	C313.718231,554.109863 314.089874,551.813049 314.636749,549.585205
	C315.185791,547.348328 315.492920,545.605774 312.306213,544.709534
	C310.611938,544.233032 308.442841,541.992615 308.222656,540.320007
	C307.229248,532.773376 301.317535,528.885620 296.826569,523.982666
	C293.908051,520.796387 291.875214,517.817688 290.331268,513.327759
	C288.192902,507.109314 289.710938,501.449463 288.835815,495.656433
	C288.645905,494.399261 287.363647,493.144958 286.301636,492.210999
	C282.648956,488.998810 282.723816,487.359497 286.153534,484.177917
	C289.869354,480.730957 294.339447,477.433411 292.227478,471.171234
	C292.126770,470.872681 292.054718,470.372314 292.215546,470.210419
	C292.971710,469.448975 293.719269,468.346741 294.642151,468.141876
	C298.230804,467.345215 302.696472,465.244354 305.335632,466.584015
	C309.984528,468.943939 313.532990,473.471680 317.542175,477.091766
	C317.963531,476.831726 318.384918,476.571686 318.806274,476.311615
	C318.399872,477.501556 317.844910,478.665222 317.628601,479.888794
	C317.409180,481.129608 317.122253,482.601562 317.578125,483.667145
	C318.474854,485.763123 329.888947,489.575409 331.891174,488.325623
	C335.460999,486.097351 336.615356,488.361542 336.875183,491.013855
	C337.231140,494.647919 338.899719,496.828522 342.169403,498.108002
	C343.077087,498.463196 343.959564,499.036072 344.676208,499.700409
	C348.359619,503.115021 354.179565,503.816589 357.691132,500.339325
	C359.242493,498.803040 359.118500,495.574890 359.755096,493.114868
	C359.291748,492.971985 358.828400,492.829102 358.365021,492.686218
	C360.063019,491.348694 361.683868,489.888855 363.502197,488.742126
	C364.111786,488.357697 365.769165,488.472656 365.994080,488.882568
	C366.460602,489.732758 366.768829,491.282806 366.297516,491.930237
	C364.047424,495.021210 364.915314,497.229584 367.910492,498.914917
	C371.093964,500.706085 373.715668,500.448975 376.040253,497.093750
	C378.478607,493.574310 381.166779,490.861664 386.584747,491.636505
	C390.106537,492.140137 393.990723,489.668152 397.785980,488.885254
	C399.706329,488.489105 402.736237,488.072235 403.603882,489.085999
	C405.463654,491.258972 407.832947,494.811279 407.204803,496.997528
	C403.668701,509.304504 399.989929,521.714233 391.485596,531.796509
	C387.363800,536.683105 381.969208,540.039368 376.822784,543.779663
	C371.143402,547.907288 366.474731,553.426941 361.374237,558.348877
	C359.967255,559.706665 358.739197,561.301941 357.172028,562.431702
	C352.355072,565.904053 350.312317,570.685608 350.516724,576.409302
	C350.548462,577.298523 352.202728,578.602173 353.311523,578.871704
	C355.043243,579.292725 356.950287,578.977173 358.782593,579.003296
	C363.802521,579.074768 366.125732,581.137451 366.728485,586.875977
	C359.552979,590.292053 355.082214,594.915161 355.021057,602.830322
	C354.948456,612.232727 363.829071,619.926208 372.981506,618.382019
	C381.378235,616.965332 387.232025,610.066162 386.822327,602.069397
	C386.376923,593.374695 380.140106,587.612122 370.246368,586.753845
M380.847412,671.376099
	C366.977264,683.326660 350.172974,688.943420 332.543854,693.355774
	C332.803375,695.999207 333.036682,698.375732 333.313812,701.198486
	C351.842194,696.554749 369.167358,690.941650 383.819458,679.199280
	C407.866730,659.927551 406.917267,633.538452 388.690308,614.303650
	C387.094604,616.096008 385.517761,617.867126 384.402039,619.120361
	C387.416046,624.922791 390.934814,629.954102 392.753296,635.539001
	C397.399658,649.809143 391.503448,661.145020 380.847412,671.376099
M355.684052,588.402344
	C353.865997,586.865112 352.047943,585.327881 349.328796,583.028748
	C348.733856,587.150757 348.350861,589.804382 347.967865,592.458008
	C348.542114,592.874268 349.116394,593.290527 349.690674,593.706787
	C351.548309,592.130310 353.405975,590.553833 355.684052,588.402344
M362.798859,553.165222
	C360.186432,549.719910 356.868500,551.651855 354.850677,553.151550
	C352.140625,555.165771 353.006836,557.957092 356.984894,560.479431
	C358.780670,558.308777 360.639343,556.062195 362.798859,553.165222
z"/>
<path fill="#FCFCFE" opacity="1.000000" stroke="none"
	d="
M251.964539,515.646057
	C252.003128,517.042236 252.006271,518.084473 251.646286,519.416626
	C248.370956,519.168640 245.476807,518.313538 242.543503,518.146729
	C228.218018,517.331909 215.746704,523.412109 203.104782,528.915405
	C200.449219,530.071411 197.420120,531.222229 194.635773,531.067566
	C186.701553,530.626831 178.804779,529.511597 170.932907,528.224976
	C172.230911,526.535217 173.359802,525.102478 174.782562,524.077759
	C176.334229,522.960205 178.419083,522.509888 179.808792,521.255920
	C182.624023,518.715515 184.657486,517.895813 187.531433,521.529114
	C189.375275,523.860107 192.455688,525.417053 195.278610,526.630371
	C196.011932,526.945557 197.758881,524.495789 199.230881,523.646423
	C200.160233,523.110107 201.440750,523.171753 202.567825,522.990479
	C209.863617,521.816956 216.209320,518.719849 220.533051,512.675781
	C221.648254,511.116882 221.675003,507.714172 220.702515,506.018066
	C219.671814,504.220520 215.810120,501.915253 214.989334,502.475525
	C209.811615,506.009430 208.893555,502.212158 207.371124,498.835266
	C206.695938,497.337616 205.583969,496.042603 204.832565,494.572632
	C201.019302,487.112640 194.587616,483.730255 186.521591,484.988892
	C185.182388,485.197845 183.828415,485.312225 182.736832,485.440338
	C182.736832,483.436523 183.345596,481.364716 182.572006,480.389771
	C181.736252,479.336487 179.619995,479.266144 178.042068,478.842346
	C175.457642,478.148285 172.537415,478.059143 170.320908,476.757599
	C162.693024,472.278595 150.132278,476.412964 146.815887,484.592987
	C146.244522,486.002319 144.357910,486.878387 142.975708,487.629883
	C142.596802,486.133484 142.389282,484.985962 142.034073,483.886139
	C139.900696,477.281158 135.014740,473.993195 128.430908,473.156525
	C122.470215,472.399017 116.291290,475.925110 113.592499,481.203522
	C110.602188,487.052094 111.262497,494.209595 115.364754,498.931549
	C119.314568,503.478027 124.143532,506.067932 130.334702,504.612091
	C137.537582,502.918396 141.804794,498.326202 143.438766,491.005432
	C147.137939,491.561218 148.752899,493.993927 147.362854,496.643127
	C145.754929,499.707550 143.253433,502.683044 140.411209,504.637421
	C135.182343,508.232941 129.139755,510.664825 124.008247,514.373169
	C121.709198,516.034546 119.423111,519.679565 119.563408,522.294006
	C119.778351,526.299561 125.042519,529.552429 121.567802,534.822327
	C124.128082,529.805237 130.642380,528.085022 130.567642,521.572937
	C130.554367,520.415833 133.434494,518.961853 135.219315,518.241150
	C135.643188,518.070007 137.607376,520.177795 137.885941,521.451111
	C139.029831,526.680176 143.097839,528.904846 147.584778,525.785095
	C154.358826,521.075256 161.029465,525.215637 167.722260,525.374084
	C168.208649,525.385681 168.644836,527.518005 168.689056,528.757812
	C158.288452,530.399170 148.022263,530.951904 138.369141,533.676575
	C106.161232,542.767517 83.687370,576.746582 86.498756,610.152344
	C87.624992,623.534607 90.662727,636.344849 94.995346,649.040405
	C93.453514,649.816101 92.226761,650.408081 90.616905,651.006226
	C89.290924,652.263489 87.949768,653.394409 87.524826,654.801941
	C87.150887,656.040527 87.801735,657.588623 88.063370,659.366943
	C88.706100,661.335815 89.285469,662.937805 89.514236,664.427856
	C82.577835,660.835510 75.733536,657.763245 69.459923,653.789856
	C56.344849,645.483337 43.804958,636.206482 37.675774,621.277710
	C35.524799,616.038574 35.836483,609.788452 35.370270,604.037048
	C40.245457,607.791443 45.645458,611.131592 43.941879,618.299866
	C42.653999,623.718933 45.595203,627.364319 48.588833,631.059814
	C51.313389,634.423218 54.260220,636.637085 58.747459,633.412781
	C59.799191,632.657104 61.856606,633.301025 63.484570,633.301025
	C63.059464,636.558716 61.300472,640.685242 62.574348,642.121033
	C65.737122,645.685913 70.009422,649.597534 74.361603,650.356567
	C77.869881,650.968445 84.299416,648.088989 85.557686,645.117615
	C87.280434,641.049255 86.649239,634.825073 84.709236,630.585571
	C79.237190,618.627563 79.951164,606.765625 82.468689,594.491943
	C82.865906,592.555481 81.594788,590.162537 80.749840,588.123718
	C80.140076,586.652405 77.972984,585.135742 78.257759,584.143799
	C78.702950,582.593079 80.562210,581.384705 81.955414,580.185852
	C83.724594,578.663513 86.024269,577.590820 87.366272,575.783142
	C88.889244,573.731689 89.606300,571.081848 90.671249,568.697693
	C87.785492,566.846252 81.901657,567.360718 75.780579,571.346741
	C74.097755,572.442566 74.425247,576.625488 73.699623,579.999329
	C71.802818,579.999329 69.164864,580.578186 66.915215,579.889221
	C60.537189,577.935974 55.775486,580.454041 51.211861,584.420776
	C48.924294,586.409180 47.401680,588.202515 48.525448,591.672546
	C48.950890,592.986206 47.547314,595.528809 46.235783,596.618713
	C44.291035,598.234802 41.686066,599.056396 38.550415,600.621338
	C38.339966,600.569641 37.061409,600.255493 35.819077,599.571411
	C37.242790,596.398438 38.350338,593.410034 40.064556,590.823669
	C49.189663,577.055786 63.409344,570.639343 78.141129,565.264526
	C85.177856,562.697144 93.008194,561.825134 97.021614,553.898010
	C102.437065,553.301025 100.294167,548.538940 102.000000,546.000000
	C100.471527,544.310242 99.133949,542.377686 97.368294,540.989624
	C94.926414,539.069946 94.116814,537.810425 96.970512,535.290710
	C104.543861,528.603577 104.931534,525.780029 100.605980,516.584534
	C100.404259,516.155701 100.185783,515.671387 100.195107,515.217407
	C100.236778,513.188843 108.072723,506.159912 110.788948,506.397827
	C107.619453,518.436707 106.395775,530.349670 106.338684,543.039856
	C111.946785,539.846191 115.105980,536.612061 115.105774,530.223083
	C115.105583,524.161926 116.841095,518.072632 118.074913,512.049255
	C118.946457,507.794434 116.583275,505.005127 111.579750,504.907776
	C109.325714,502.574799 107.293137,499.954742 104.751717,497.994324
	C102.473061,496.236542 102.038483,494.865997 103.294472,492.202576
	C105.885689,486.707672 107.786041,480.880127 110.496948,475.452301
	C111.439232,473.565613 113.933311,472.452576 115.722046,470.990326
	C120.927132,466.735382 126.856316,466.161987 133.130661,468.404572
	C133.320694,465.674286 133.087234,463.662994 133.662277,461.918152
	C134.755814,458.600189 137.111694,457.434662 140.723145,458.351349
	C147.249451,460.007874 153.382950,459.588684 158.545074,454.379120
	C159.268600,453.648895 161.887375,453.595612 162.643387,454.294678
	C167.335205,458.633514 173.503738,457.977295 179.015579,459.273895
	C180.669785,459.663025 182.907578,457.571198 185.947189,456.097565
	C187.493195,457.748962 189.320587,460.153961 191.604385,461.991821
	C193.319717,463.372223 195.575317,464.702942 197.672623,464.845398
	C201.054764,465.075073 202.665863,466.267151 204.519302,469.269653
	C206.432236,472.368530 210.332474,474.242706 213.369507,476.644867
	C214.991577,477.927856 216.691818,479.120972 218.235489,480.491272
	C219.471725,481.588654 220.304291,483.498199 221.695602,484.004791
	C230.083344,487.058868 234.565231,494.042114 239.362930,500.796173
	C240.700653,502.679321 242.404007,504.302826 243.555969,505.610107
	C246.411545,504.824493 248.381805,504.140167 250.409760,503.786774
	C251.370407,503.619385 252.441315,504.084564 253.462280,504.263184
	C253.217285,505.338348 253.338531,506.875061 252.664658,507.409882
	C249.547638,509.883575 250.540131,512.521729 251.964539,515.646057
M240.689926,508.552612
	C239.442215,507.211304 238.212708,505.852478 236.943985,504.531372
	C221.837723,488.800629 205.555771,474.627625 184.837875,466.687195
	C168.400909,460.387451 152.133835,459.589142 135.902542,469.624146
	C139.504807,470.835907 140.843201,475.352448 145.633240,473.198181
	C157.471558,467.873962 169.317642,469.385620 181.012848,474.746063
	C181.336838,475.334564 181.660828,475.923065 181.984802,476.511566
	C182.344177,475.936890 182.703552,475.362213 183.785492,474.891357
	C199.899933,481.561554 213.566864,491.871643 225.572174,504.245331
	C230.190536,509.005280 234.700256,511.509277 241.671600,510.484222
	C242.523163,510.933929 243.374725,511.383606 244.226288,511.833282
	C244.446945,511.305298 244.667603,510.777344 244.888245,510.249359
	C243.660141,509.833191 242.432022,509.417023 240.689926,508.552612
z"/>
<path fill="#4958FB" opacity="1.000000" stroke="none"
	d="
M460.990265,653.104553
	C454.360809,653.098022 448.223969,653.098022 441.668610,653.098022
	C441.668610,630.754944 441.668610,608.591370 441.668610,586.377197
	C451.548187,586.377197 461.281616,585.393433 470.740906,586.585388
	C489.483734,588.947021 500.627838,606.734253 496.921417,626.730713
	C493.636200,644.454773 481.915253,653.179749 460.990265,653.104553
M474.776062,640.538086
	C484.814911,634.741150 488.972778,621.515015 484.504120,609.593140
	C480.227753,598.184204 468.940887,593.558899 452.682343,596.802429
	C452.682343,611.927368 452.682343,627.134094 452.682343,643.751831
	C460.200165,642.738098 467.138214,641.802612 474.776062,640.538086
z"/>
<path fill="#495AFB" opacity="1.000000" stroke="none"
	d="
M652.132690,641.049805
	C644.461914,655.505005 632.722229,658.375732 617.973267,649.418091
	C617.973267,657.373474 617.973267,665.123108 617.973267,673.248169
	C614.249878,673.248169 610.881348,673.248169 607.247498,673.248169
	C607.247498,650.666016 607.247498,628.390564 607.247498,605.701782
	C610.498718,605.701782 613.725647,605.701782 617.296204,605.701782
	C617.579834,607.008850 617.868225,608.337646 618.264709,610.164856
	C623.511108,605.344604 629.208679,603.205688 635.933105,604.514343
	C649.288086,607.113342 657.474976,621.766663 653.717041,636.444397
	C653.346924,637.889771 652.761414,639.280090 652.132690,641.049805
M619.119080,620.948853
	C618.677490,625.169617 617.560669,629.453430 617.947632,633.596802
	C618.576111,640.326721 623.535217,644.650696 629.687500,645.031738
	C635.479858,645.390503 640.676575,641.574524 642.723511,635.459412
	C645.399231,627.465759 642.576660,618.694946 636.244263,615.325623
	C630.189575,612.104126 624.299194,613.836914 619.119080,620.948853
z"/>
<path fill="#4A5AFB" opacity="1.000000" stroke="none"
	d="
M681.689941,611.564087
	C687.263916,613.875610 692.745178,615.557617 697.665344,618.260986
	C708.702026,624.325134 710.370239,639.834656 701.249146,648.501770
	C688.855591,660.278442 665.615662,654.687500 659.688538,638.045227
	C662.759155,636.406860 665.901367,634.730286 667.783508,633.726013
	C672.015564,637.340515 675.120422,641.420227 679.200378,643.032837
	C682.568665,644.364197 687.538696,643.789856 691.000793,642.257080
	C696.871216,639.658203 697.094238,631.556580 691.776123,627.882751
	C689.084412,626.023254 685.878113,624.884949 682.850891,623.541138
	C679.360779,621.991821 675.683594,620.819458 672.314819,619.050781
	C665.329895,615.383545 661.621460,609.484497 662.376953,601.523438
	C663.130859,593.579590 668.022400,588.608276 675.311401,585.902771
	C686.738586,581.661133 700.828979,587.239624 704.369324,597.689575
	C701.568848,599.211121 698.703003,600.768188 695.637329,602.433777
	C691.624512,596.347534 686.353271,593.034851 679.477661,595.875122
	C677.074402,596.867859 674.546387,600.089478 674.065002,602.665039
	C673.127136,607.682739 677.359131,609.737488 681.689941,611.564087
z"/>
<path fill="#4B5AFA" opacity="1.000000" stroke="none"
	d="
M953.056274,619.922363
	C964.863647,631.466614 960.367859,649.204590 944.860718,653.579468
	C930.829285,657.537964 916.622620,650.822876 912.661194,638.044373
	C915.589539,636.400513 918.590515,634.715881 921.979553,632.813416
	C922.678223,634.094543 923.299500,635.177124 923.868591,636.286377
	C927.518250,643.400940 935.777710,646.225159 943.031067,642.828064
	C949.258728,639.911255 950.205872,631.762634 944.591125,627.735779
	C942.339294,626.120789 939.589478,625.167542 937.003723,624.058838
	C933.342163,622.488586 929.518433,621.265991 925.949768,619.515930
	C918.705078,615.963196 914.803589,610.198975 915.372375,601.903748
	C915.911316,594.042664 920.619751,588.359009 928.808289,585.721863
	C939.491211,582.281494 954.416687,587.081299 957.045105,597.602844
	C954.328613,599.065552 951.479248,600.599854 948.415710,602.249451
	C944.467834,596.028809 939.118286,593.473938 932.145142,595.681335
	C926.057983,597.608276 924.597839,604.571594 929.525330,608.632141
	C931.636169,610.371460 934.439758,611.297974 936.980896,612.481506
	C942.228394,614.925354 947.510986,617.293945 953.056274,619.922363
z"/>
<path fill="#4B5CFA" opacity="1.000000" stroke="none"
	d="
M819.236694,600.007812
	C819.236389,594.852173 819.236389,590.194763 819.236389,585.169067
	C822.695374,585.169067 825.946655,585.169067 829.773926,585.169067
	C829.773926,597.835449 829.773926,610.545776 829.773926,623.256165
	C830.156677,623.452026 830.539429,623.647827 830.922241,623.843689
	C834.496155,620.087830 838.531067,616.665161 841.541077,612.501587
	C846.646790,605.439148 853.311951,604.221558 861.895569,605.941833
	C855.883728,612.218689 850.122009,618.234436 844.180725,624.437561
	C850.451355,633.893494 856.575439,643.128540 863.173401,653.078064
	C859.101929,653.078064 855.667419,653.342957 852.311401,652.945251
	C851.003601,652.790344 849.556091,651.361206 848.714966,650.138977
	C844.771851,644.408997 841.017761,638.549011 837.202515,632.745117
	C827.603027,636.961914 830.661377,645.357788 829.849426,652.689453
	C826.550537,652.689453 823.316345,652.689453 819.236938,652.689453
	C819.236938,635.341003 819.236938,617.923523 819.236694,600.007812
z"/>
<path fill="#4B5CFA" opacity="1.000000" stroke="none"
	d="
M745.437439,642.663940
	C747.113525,641.276184 748.463928,640.088623 750.069397,638.676758
	C752.576111,640.373535 754.996399,642.011841 757.388184,643.630798
	C751.419312,654.157715 738.001770,657.698486 726.144897,652.187927
	C715.301331,647.148254 710.232361,632.841064 714.679077,619.825684
	C718.687500,608.093201 730.865784,601.717346 743.166504,604.911316
	C754.086060,607.746704 760.735352,619.059021 758.739014,631.924194
	C747.548645,631.924194 736.283142,631.924194 725.047485,631.924194
	C724.383728,642.750854 734.570679,648.089844 745.437439,642.663940
M732.590942,624.147156
	C737.676697,624.147156 742.762512,624.147156 747.870239,624.147156
	C747.481140,617.299194 743.404663,613.584167 736.879028,613.614258
	C730.377686,613.644226 725.733643,617.682312 725.211182,624.151978
	C727.369812,624.151978 729.497314,624.151978 732.590942,624.147156
z"/>
<path fill="#4B5AFA" opacity="1.000000" stroke="none"
	d="
M776.784790,632.741333
	C777.163513,638.866882 780.191040,642.731628 785.604065,644.546448
	C791.114441,646.393921 795.629700,644.819031 802.125671,638.876282
	C804.579346,640.379211 807.173584,641.968323 809.706848,643.520081
	C805.506714,653.922180 786.296387,659.692810 773.466736,649.003235
	C760.783691,638.435730 762.962280,614.676453 777.517639,606.922058
	C785.630981,602.599670 794.018860,602.733398 801.676270,607.985657
	C809.948303,613.659485 812.047180,622.102478 811.030579,632.335083
	C799.552734,632.335083 788.270874,632.335083 776.784790,632.741333
M799.760986,620.354309
	C796.276855,614.531738 791.940308,612.579468 785.576599,613.968933
	C780.693054,615.035217 777.853394,618.296692 777.150330,624.042114
	C784.131775,624.042114 791.067932,624.122803 797.995483,623.916504
	C798.683533,623.895996 799.319458,622.125183 799.760986,620.354309
z"/>
<path fill="#4B5AFA" opacity="1.000000" stroke="none"
	d="
M540.902954,632.031128
	C531.779846,632.048706 523.140991,632.048706 513.918518,632.048706
	C514.084778,637.352905 516.049561,641.289978 520.567322,643.490051
	C527.908875,647.065125 534.074219,644.667297 539.431824,638.711853
	C542.026733,640.397034 544.477112,641.988403 546.863464,643.538147
	C541.634949,655.772461 520.963501,658.351990 510.330841,648.657593
	C498.458344,637.832764 500.328461,615.725952 514.053589,607.406921
	C522.201538,602.468323 530.663330,603.034973 538.686157,607.729553
	C545.975586,611.995056 549.502747,621.389893 548.041992,632.013550
	C545.901123,632.013550 543.644104,632.013550 540.902954,632.031128
M526.501038,624.131348
	C530.054688,624.131348 533.608398,624.131348 537.205078,624.131348
	C536.485046,617.025452 532.627869,613.568970 526.325195,613.633301
	C519.796692,613.699890 515.284912,617.601440 514.577515,624.145020
	C518.250000,624.145020 521.883789,624.145020 526.501038,624.131348
z"/>
<path fill="#4A5AFB" opacity="1.000000" stroke="none"
	d="
M1182.508545,638.409546
	C1180.588867,630.176819 1180.418701,622.422302 1184.874268,615.347473
	C1191.010376,605.604187 1202.265137,601.710449 1212.633789,605.432495
	C1223.083618,609.183594 1228.342285,618.773071 1226.884155,631.932495
	C1215.704102,631.932495 1204.468628,631.932495 1192.857300,631.932495
	C1192.623901,637.586182 1195.044189,641.236267 1199.451660,643.580383
	C1205.436768,646.763550 1211.059937,645.284851 1218.150146,638.706909
	C1220.615723,640.246582 1223.202393,641.861877 1226.001221,643.609741
	C1220.859131,652.226746 1213.149658,655.023254 1204.206665,654.585999
	C1193.743408,654.074219 1186.499878,648.593201 1182.508545,638.409546
M1213.039307,616.402832
	C1204.130127,610.741272 1194.550903,614.224365 1193.196777,623.868469
	C1200.806519,623.868469 1208.380005,623.868469 1217.074829,623.868469
	C1215.711060,621.145142 1214.661865,619.050232 1213.039307,616.402832
z"/>
<path fill="#4A5AFB" opacity="1.000000" stroke="none"
	d="
M555.490479,636.526550
	C553.908875,627.982788 554.383301,620.162659 559.650635,613.296997
	C566.440491,604.446960 577.627563,601.665466 587.851501,606.180298
	C596.955017,610.200317 602.046631,620.720215 600.045288,631.932495
	C588.847351,631.932495 577.569946,631.932495 565.866394,631.932495
	C566.342468,637.566101 568.488159,641.696960 573.299316,643.827332
	C580.380371,646.962708 586.235962,644.470032 591.269531,638.690369
	C593.932739,640.308899 596.441772,641.833679 598.900940,643.328186
	C595.915466,650.526672 587.527222,655.033081 578.218140,654.715881
	C566.996460,654.333557 559.373413,648.333435 555.490479,636.526550
M580.986023,613.840881
	C572.084961,613.304626 567.895020,616.112671 566.408936,623.849060
	C574.167358,623.849060 581.874268,623.849060 589.795227,623.849060
	C589.348938,618.516602 586.473083,615.528687 580.986023,613.840881
z"/>
<path fill="#4B5CFA" opacity="1.000000" stroke="none"
	d="
M1034.000366,621.200439
	C1037.138794,611.002075 1043.930908,605.430481 1053.945190,604.268921
	C1062.725830,603.250427 1069.979736,606.477356 1075.009521,613.983032
	C1078.521484,619.223450 1079.236694,625.053345 1078.432007,631.696533
	C1067.139160,631.696533 1055.908325,631.696533 1044.337769,631.696533
	C1044.126709,637.365784 1046.362183,641.010071 1050.806030,643.379639
	C1057.039307,646.703186 1062.397583,645.454163 1069.931885,638.825745
	C1072.282104,640.375000 1074.718872,641.981262 1077.061157,643.525330
	C1072.552002,655.809326 1047.788940,660.246033 1037.367065,644.605225
	C1032.622559,637.484741 1031.991211,629.732117 1034.000366,621.200439
M1064.075195,624.111816
	C1065.210571,624.025818 1066.345825,623.939758 1067.489380,623.853088
	C1066.662964,617.034973 1063.240967,613.830566 1056.819214,613.695801
	C1050.206787,613.556885 1046.078979,616.984070 1044.726685,624.116699
	C1050.927490,624.116699 1057.047607,624.116699 1064.075195,624.111816
z"/>
<path fill="#4758FA" opacity="1.000000" stroke="none"
	d="
M1117.758545,638.988342
	C1117.714600,633.830322 1117.759277,629.167236 1117.608276,624.510437
	C1117.386963,617.675598 1114.866943,614.561951 1109.347290,614.023254
	C1103.180420,613.421448 1097.905518,616.968079 1097.020142,623.104126
	C1096.361084,627.671875 1096.718140,632.387512 1096.642334,637.037659
	C1096.563843,641.863159 1096.514404,646.689209 1096.432373,651.514709
	C1096.427002,651.829224 1096.253662,652.140808 1096.060547,652.775513
	C1092.928345,652.775513 1089.695312,652.775513 1086.013306,652.775513
	C1086.013306,637.254028 1086.013306,621.727783 1086.013306,605.804199
	C1089.212769,605.804199 1092.428467,605.804199 1095.935181,605.804199
	C1096.200562,607.111023 1096.485596,608.514099 1096.552856,608.845398
	C1101.600708,607.254578 1106.409668,604.760620 1111.378418,604.385681
	C1120.497559,603.697632 1127.456055,609.582764 1128.018677,618.694519
	C1128.712891,629.940186 1128.184570,641.261292 1128.184570,652.846924
	C1124.902100,652.846924 1121.661743,652.846924 1117.759888,652.846924
	C1117.759888,648.335266 1117.759888,643.910706 1117.758545,638.988342
z"/>
<path fill="#FDFDFE" opacity="1.000000" stroke="none"
	d="
M101.595299,546.050415
	C100.294167,548.538940 102.437065,553.301025 97.053307,553.559326
	C96.202255,552.951904 95.659454,552.428162 95.243462,552.514648
	C74.791656,556.765137 55.545914,563.637390 40.080303,578.461121
	C23.866930,594.001587 22.177979,615.915161 35.438705,633.945007
	C43.468040,644.862061 53.876385,652.991943 64.620224,660.610962
	C64.186211,662.192322 64.093109,663.596191 64.000000,665.000000
	C61.363102,663.342712 58.471447,661.978699 56.148003,659.960571
	C52.512543,656.802734 48.554909,655.482727 43.805630,655.957947
	C40.623154,656.276306 40.034782,654.204956 39.960854,651.494141
	C39.787422,645.134888 34.942303,638.948730 28.974049,636.899963
	C28.013763,636.570312 26.749409,635.668396 26.548773,634.814148
	C24.908606,627.831238 23.450697,620.804382 22.021223,613.773804
	C21.561747,611.513977 21.262676,609.211548 21.050655,606.913818
	C20.734924,603.492188 20.017029,600.702209 14.520484,603.318359
	C16.777029,599.510681 18.279303,596.852295 13.617435,595.464233
	C12.775804,595.213745 12.718325,592.329346 12.298811,590.661011
	C12.914843,590.411682 13.530874,590.162292 14.146906,589.912964
	C15.465661,591.458984 16.626640,593.186462 18.143351,594.504761
	C20.014959,596.131470 22.019648,597.562622 23.094929,593.468201
	C23.552834,591.724670 24.963802,590.165100 26.152981,588.692627
	C29.365009,584.715149 32.043541,580.750122 30.280788,575.143188
	C29.359081,572.211426 31.010475,570.539246 34.087902,571.222046
	C41.170876,572.793823 47.647705,568.549500 49.028835,561.294617
	C49.268906,560.033630 49.749641,558.818481 50.312611,556.935181
	C60.112358,561.464050 66.940956,556.229858 74.157761,550.898499
	C76.951523,548.834595 81.280479,548.654236 84.981331,548.059082
	C90.350510,547.195435 95.784348,546.733887 101.595299,546.050415
z"/>
<path fill="#4A5AFB" opacity="1.000000" stroke="none"
	d="
M1007.687744,642.288879
	C1007.379700,644.253906 1007.253845,646.472290 1006.088318,647.717773
	C995.067627,659.495544 974.666565,655.917969 967.442993,641.071838
	C962.781433,631.491028 964.464783,619.252258 971.492676,611.630249
	C978.206787,604.348572 989.322083,601.869080 999.077393,606.280945
	C1002.930847,608.023560 1006.038330,611.415527 1010.291138,614.673706
	C1006.320496,617.111938 1003.693970,618.724731 1001.292542,620.199402
	C1000.563843,619.898193 1000.159180,619.858948 999.977539,619.637085
	C995.847534,614.591492 990.760315,612.526978 984.479492,615.022583
	C978.640503,617.342651 976.546692,622.354858 976.047363,628.130493
	C975.459351,634.932800 978.706543,641.067566 983.964233,643.666809
	C988.638245,645.977356 993.669617,645.785034 996.976013,642.164551
	C1001.000244,637.758057 1003.911438,639.373291 1007.687744,642.288879
z"/>
<path fill="#4B5AFA" opacity="1.000000" stroke="none"
	d="
M1160.731689,604.192932
	C1168.475952,605.157471 1174.455688,608.133484 1178.306396,615.446594
	C1175.486694,617.074341 1172.825317,618.610779 1170.248169,620.098511
	C1161.135742,612.676025 1154.146362,612.168396 1148.787842,618.373230
	C1143.782349,624.169312 1144.327271,636.374390 1149.816528,641.417786
	C1155.740845,646.860840 1163.288818,645.886536 1170.212036,638.458069
	C1172.862549,640.113159 1175.597046,641.820679 1178.315552,643.518250
	C1172.834595,653.276245 1160.977051,657.193298 1149.883667,653.222717
	C1138.543335,649.163635 1132.444092,637.256165 1134.866699,623.905273
	C1137.152954,611.306763 1146.464600,604.076538 1160.731689,604.192932
z"/>
<path fill="#4958FB" opacity="1.000000" stroke="none"
	d="
M369.930115,586.839661
	C380.140106,587.612122 386.376923,593.374695 386.822327,602.069397
	C387.232025,610.066162 381.378235,616.965332 372.981506,618.382019
	C363.829071,619.926208 354.948456,612.232727 355.021057,602.830322
	C355.082214,594.915161 359.552979,590.292053 366.729187,587.266113
	C367.872162,587.011353 368.743011,586.968384 369.930115,586.839661
z"/>
<path fill="#4A5AFB" opacity="1.000000" stroke="none"
	d="
M1015.202759,615.049011
	C1015.196777,611.744080 1015.196777,608.929688 1015.196777,605.668945
	C1018.845764,605.668945 1022.228943,605.668945 1026.029785,605.668945
	C1026.029785,621.261169 1026.029785,636.828186 1026.029785,652.776978
	C1022.607544,652.776978 1019.226013,652.776978 1015.208801,652.776978
	C1015.208801,640.368591 1015.208801,627.954102 1015.202759,615.049011
z"/>
<path fill="#495AFB" opacity="1.000000" stroke="none"
	d="
M871.244446,656.092529
	C884.188660,656.092957 896.661926,656.092957 909.541077,656.092957
	C909.541077,659.003235 909.541077,661.710632 909.541077,664.793945
	C895.414612,664.793945 881.336487,664.793945 867.249573,664.793945
	C865.398743,657.562439 865.867493,656.399597 871.244446,656.092529
z"/>
<path fill="#5363FB" opacity="1.000000" stroke="none"
	d="
M111.589844,505.107178
	C116.583275,505.005127 118.946457,507.794434 118.074913,512.049255
	C116.841095,518.072632 115.105583,524.161926 115.105774,530.223083
	C115.105980,536.612061 111.946785,539.846191 106.338684,543.039856
	C106.395775,530.349670 107.619453,518.436707 111.203201,506.399994
	C111.444923,505.820740 111.567001,505.586914 111.589844,505.107178
z"/>
<path fill="#4F5EFA" opacity="1.000000" stroke="none"
	d="
M1019.568970,598.057129
	C1015.106079,596.649902 1013.274292,593.795288 1014.111694,589.587402
	C1014.828491,585.985474 1017.384888,584.233521 1020.988464,584.434143
	C1024.548828,584.632385 1026.831665,586.679138 1027.592896,590.172058
	C1028.545654,594.543884 1025.498413,597.646973 1019.568970,598.057129
z"/>
<path fill="#FCFCFE" opacity="1.000000" stroke="none"
	d="
M64.000000,665.375000
	C64.093109,663.596191 64.186211,662.192322 64.914185,660.718994
	C69.432495,662.899719 73.315933,665.149902 77.199371,667.400085
	C76.902222,668.366699 76.605064,669.333252 76.153954,670.649902
	C75.555557,671.000000 75.111107,671.000000 73.900253,671.000000
	C69.777733,670.948364 66.118401,671.819946 64.000000,668.000000
	C64.000000,667.250000 64.000000,666.500000 64.000000,665.375000
z"/>
<path fill="#FDFDFE" opacity="1.000000" stroke="none"
	d="
M63.734436,668.215698
	C66.118401,671.819946 69.777733,670.948364 73.566917,671.000000
	C73.409828,675.146912 69.875542,674.526672 67.839310,673.721130
	C65.976524,672.984131 64.894798,670.272705 63.734436,668.215698
z"/>
<path fill="#4655FC" opacity="1.000000" stroke="none"
	d="
M170.893280,528.661743
	C178.804779,529.511597 186.701553,530.626831 194.635773,531.067566
	C197.420120,531.222229 200.449219,530.071411 203.104782,528.915405
	C215.746704,523.412109 228.218018,517.331909 242.543503,518.146729
	C245.476807,518.313538 248.370956,519.168640 251.653168,519.807373
	C251.463028,521.326721 251.233261,523.043457 250.276123,524.103577
	C248.068954,526.548279 245.057632,528.353577 243.181458,530.993164
	C238.678665,537.328125 240.078934,543.664246 246.253876,548.334412
	C257.141174,556.568604 267.793640,565.121887 278.843231,573.129272
	C284.182129,576.998230 289.917603,580.613892 295.980377,583.116272
	C303.727539,586.313965 307.831970,584.029114 310.701080,576.291443
	C314.288330,566.616882 317.554260,556.821228 321.255371,547.191772
	C322.662537,543.530762 321.609314,541.372742 318.769104,539.099854
	C308.363342,530.772705 299.244019,521.389099 295.373566,508.116730
	C291.990692,496.516327 293.404785,485.345490 298.976990,474.744507
	C299.778717,473.219208 301.980133,471.416077 303.401306,471.521881
	C304.757019,471.622803 306.619629,473.855103 307.086182,475.486053
	C309.798187,484.967041 315.594849,490.830750 325.237122,493.510345
	C334.801849,496.168365 339.734650,503.591095 342.206940,512.427002
	C347.129883,510.352997 351.925323,506.620789 356.684235,506.666779
	C368.336609,506.779419 378.354492,503.511749 388.003632,497.313538
	C391.902344,494.809204 396.910217,493.864075 402.146179,495.920624
	C394.707947,519.889526 383.848145,540.321533 356.786041,546.067200
	C351.596649,547.169067 349.407410,550.052307 348.482788,555.149536
	C344.648499,576.287415 340.377228,597.322693 332.662964,617.503662
	C327.080414,632.107910 320.574310,646.207764 311.439758,659.722168
	C308.219238,663.774719 305.378265,667.310791 302.267639,671.008850
	C300.084229,673.349243 298.170471,675.527710 295.962280,677.817505
	C292.955170,680.537659 290.242432,683.146423 287.024292,686.241333
	C289.653595,687.482483 291.393311,688.381653 293.192780,689.138794
	C298.718018,691.463501 304.431366,693.418701 309.718781,696.190552
	C311.657288,697.206726 313.797852,700.179749 313.679810,702.128845
	C313.557678,704.145203 310.964447,706.175476 309.135010,707.853943
	C308.254974,708.661377 306.663605,708.760498 305.363403,709.032593
	C292.875427,711.644958 280.575104,710.707886 268.293030,707.461243
	C266.123535,706.887756 262.968140,707.296082 261.154816,708.541809
	C239.885544,723.153748 216.350937,727.525391 191.141449,724.457214
	C168.529877,721.705383 148.696869,712.424683 130.792633,698.031372
	C114.983665,684.228394 103.465317,667.756165 95.310425,648.856689
	C90.662727,636.344849 87.624992,623.534607 86.498756,610.152344
	C83.687370,576.746582 106.161232,542.767517 138.369141,533.676575
	C148.022263,530.951904 158.288452,530.399170 168.983276,528.830688
	C170.092972,528.760620 170.493118,528.711182 170.893280,528.661743
M124.989029,661.462585
	C125.687660,662.396179 126.367104,663.344910 127.087852,664.261108
	C137.208694,677.127136 148.667725,688.431641 164.444305,694.076111
	C168.368271,695.479980 172.948410,695.998352 177.096970,695.593079
	C182.658752,695.049805 183.742737,691.668945 180.960037,686.805969
	C179.236877,683.794617 177.358856,680.745117 176.376877,677.465271
	C174.765152,672.082153 177.656036,669.092407 182.967896,670.735474
	C187.203186,672.045532 191.449387,673.873840 195.127838,676.318909
	C203.579071,681.936584 211.667816,688.097534 219.938690,693.988892
	C231.562057,702.268188 244.545044,704.797729 260.050476,703.294128
	C241.141937,691.925659 230.552612,674.984680 219.158661,658.532288
	C211.044739,646.816040 202.258621,635.280029 192.174942,625.273438
	C172.265121,605.515625 148.036285,593.655396 119.590225,592.878784
	C103.170807,592.430481 102.021790,592.603943 104.519104,610.719788
	C107.036148,628.978638 114.308128,645.589600 124.989029,661.462585
M251.002991,623.238342
	C251.903427,633.966797 260.718689,640.824768 270.049591,638.056030
	C276.809082,636.050171 278.646851,632.616211 274.904205,626.529663
	C270.663361,619.632874 265.937958,612.866760 260.417999,606.987610
	C257.196533,603.556458 252.235916,601.200867 247.621658,599.840088
	C244.771439,598.999512 240.964493,600.589111 237.867889,601.803711
	C236.650818,602.281128 235.643066,604.709839 235.641357,606.251099
	C235.640549,606.986938 238.138702,608.122192 239.630768,608.399536
	C250.542679,610.427551 251.591278,611.637634 251.002991,623.238342
M239.880112,621.332336
	C241.291168,620.065125 243.296600,619.015503 243.872650,617.442505
	C244.179245,616.605225 242.239258,614.237488 240.882599,613.743469
	C239.952301,613.404785 237.145874,615.134949 237.166733,615.884949
	C237.216019,617.657349 238.452286,619.396790 239.880112,621.332336
z"/>
<path fill="#4D5DFB" opacity="1.000000" stroke="none"
	d="
M321.014191,660.960022
	C325.825134,683.531128 329.021820,706.283203 325.664124,729.327209
	C324.331940,738.470093 322.278381,747.772644 318.804260,756.289001
	C308.269928,782.112610 285.470581,793.074097 258.401489,786.290588
	C235.594742,780.575317 217.171829,767.470398 200.213593,751.853821
	C193.261444,745.451721 196.033173,745.934387 187.307297,750.199585
	C174.867355,756.280212 162.238205,761.782898 148.155380,762.836365
	C147.239822,762.904846 146.034027,763.766846 145.580200,764.597107
	C141.831909,771.454163 135.954407,774.103333 128.483383,773.034546
	C121.340736,772.012756 117.672188,767.092712 115.710541,759.795776
	C115.609024,757.463562 115.644257,755.840454 115.876617,753.951843
	C118.474632,746.978516 122.954094,742.715088 130.273590,742.275452
	C137.534149,741.839233 142.598892,745.208984 145.833817,751.726440
	C146.383987,752.834839 148.206055,753.907715 149.485641,753.963623
	C159.474915,754.399658 168.116638,749.760803 176.991791,746.160645
	C180.887878,744.580261 184.532379,742.379578 188.726151,740.238464
	C185.961807,737.235901 183.844620,734.936279 181.581482,732.304810
	C181.229767,731.531189 181.024033,731.089478 181.262756,730.683289
	C186.096924,731.776794 191.117218,730.815430 194.593964,734.931152
	C194.977280,735.384949 196.631271,734.792236 197.690170,734.643860
	C202.787781,733.929382 207.883423,733.200867 212.979752,732.477356
	C213.052551,732.976440 213.125351,733.475586 213.198151,733.974670
	C209.475830,736.706665 205.753510,739.438660 200.771774,743.095032
	C211.813522,751.353210 222.016479,759.578735 232.834915,766.894043
	C242.100693,773.159302 252.492691,777.321167 263.581543,779.494080
	C284.232086,783.540649 301.753998,775.053650 310.325958,755.932251
	C322.299561,729.222839 321.095886,701.576111 315.101990,673.462402
	C315.059174,672.121216 314.883881,671.061340 314.763306,669.651123
	C315.571228,667.881592 316.324463,666.462280 317.077698,665.042969
	C317.765320,664.104614 318.452942,663.166260 319.465027,661.805542
	C320.197723,661.242126 320.605957,661.101074 321.014191,660.960022
z"/>
<path fill="#FEFEFE" opacity="1.000000" stroke="none"
	d="
M321.256439,660.692993
	C320.605957,661.101074 320.197723,661.242126 319.486023,661.507935
	C319.043945,654.590149 321.323090,651.745483 327.671326,650.977600
	C330.736145,650.606873 332.382080,649.945129 331.120087,645.886475
	C328.359253,637.007324 331.392365,629.721558 340.461395,623.761536
	C341.818054,622.869934 342.992401,621.700928 343.732513,619.600098
	C342.391357,619.600098 341.050201,619.600098 339.801270,619.600098
	C339.522858,619.206177 339.131134,618.889343 339.184235,618.692505
	C340.554535,613.613464 341.903320,608.525818 343.465485,603.504944
	C343.661346,602.875244 345.460114,602.038147 345.772034,602.275452
	C346.991058,603.202820 348.907288,604.642700 348.782959,605.678345
	C347.876312,613.230774 355.247498,615.786621 357.874084,621.158691
	C358.392944,622.219971 360.681549,622.852356 362.183197,622.909058
	C365.694092,623.041626 369.052368,622.798828 371.749054,625.934937
	C372.422943,626.718567 374.783325,626.052063 375.008240,626.052063
	C378.553650,627.714722 381.036591,629.087524 383.667267,630.061401
	C387.141083,631.347412 388.475159,638.608948 385.743683,642.209167
	C385.546844,642.468567 385.181061,642.620239 385.037659,642.896545
	C384.191284,644.527832 383.387512,646.181152 382.569397,647.827087
	C384.328461,647.743958 386.087524,647.660828 387.957825,647.572449
	C389.638184,651.879272 385.490814,658.597107 380.719635,659.056519
	C378.884918,659.233154 377.113556,660.067993 375.313324,660.602966
	C376.058838,662.280457 376.804321,663.958008 378.105377,666.885559
	C375.702667,668.438660 372.926392,670.514648 369.897430,672.111084
	C366.932068,673.674133 363.136719,673.575439 361.430725,677.515808
	C360.995270,678.521484 358.242828,678.979980 356.587921,678.909973
	C352.734680,678.746948 349.481628,679.294189 346.837311,682.553406
	C343.768463,686.335876 339.292084,686.572266 334.926727,685.894592
	C331.130096,685.305115 329.264984,682.021423 330.230225,678.891724
	C331.974640,673.235596 329.238586,669.310242 326.701294,665.029480
	C325.437073,662.896545 326.117126,658.722595 321.256439,660.692993
M339.078888,659.776794
	C336.536072,660.845154 336.553070,661.114319 340.003815,665.135986
	C339.801270,663.008545 339.673492,661.666504 339.078888,659.776794
M345.656555,630.532227
	C347.200104,631.349609 348.743652,632.166931 350.287201,632.984253
	C350.528046,632.274780 350.768890,631.565308 351.009735,630.855835
	C349.424957,630.618103 347.840179,630.380371 345.656555,630.532227
M335.155212,674.394348
	C335.797394,674.654114 336.439545,674.913940 337.081696,675.173706
	C337.174683,674.627258 337.267670,674.080750 337.360687,673.534302
	C336.681183,673.615479 336.001709,673.696655 335.155212,674.394348
z"/>
<path fill="#4D5EFB" opacity="1.000000" stroke="none"
	d="
M77.554077,667.512207
	C73.315933,665.149902 69.432495,662.899719 65.255096,660.541504
	C53.876385,652.991943 43.468040,644.862061 35.438705,633.945007
	C22.177979,615.915161 23.866930,594.001587 40.080303,578.461121
	C55.545914,563.637390 74.791656,556.765137 95.243462,552.514648
	C95.659454,552.428162 96.202255,552.951904 96.654198,553.529602
	C93.008194,561.825134 85.177856,562.697144 78.141129,565.264526
	C63.409344,570.639343 49.189663,577.055786 40.064556,590.823669
	C38.350338,593.410034 37.242790,596.398438 35.591869,599.842529
	C35.226841,601.655823 35.125244,602.827881 35.023647,603.999939
	C35.836483,609.788452 35.524799,616.038574 37.675774,621.277710
	C43.804958,636.206482 56.344849,645.483337 69.459923,653.789856
	C75.733536,657.763245 82.577835,660.835510 89.765068,664.634766
	C97.167358,666.823059 99.536804,672.595154 101.703026,678.102661
	C96.366371,675.907410 91.386757,673.841248 86.407143,671.775024
	C83.574364,670.391479 80.741577,669.007874 77.554077,667.512207
z"/>
<path fill="#FCFCFE" opacity="1.000000" stroke="none"
	d="
M86.036964,671.963745
	C91.386757,673.841248 96.366371,675.907410 101.684319,678.447876
	C102.015099,679.614746 102.007545,680.307373 101.993347,681.366333
	C101.662010,682.453369 101.506561,683.633057 100.986824,683.824707
	C94.907288,686.066223 94.781738,691.567871 94.072632,696.574707
	C93.302284,702.014038 93.683685,707.218689 99.549698,710.120117
	C100.073235,710.379028 100.350586,711.135681 100.734344,711.650513
	C93.927284,717.954346 96.515366,729.654541 105.712997,734.138733
	C101.945526,739.013062 106.881332,741.498962 109.093567,744.053345
	C111.536598,746.874207 113.616753,743.500122 115.636864,741.928955
	C117.146797,740.754700 118.974434,739.999023 120.565514,738.917114
	C125.900391,735.289551 131.583496,738.430908 137.078186,738.187134
	C139.507721,738.079407 142.107788,739.844421 144.488602,741.041382
	C148.814438,743.216187 152.930679,745.844360 157.366882,747.739014
	C158.562439,748.249634 160.609009,746.838562 162.239746,746.240906
	C164.172226,745.532654 166.032639,744.273254 168.002777,744.088196
	C174.194885,743.506531 177.684570,742.660095 179.193329,735.410156
	C179.412811,734.355530 180.852402,733.554871 181.727417,732.636658
	C183.844620,734.936279 185.961807,737.235901 188.726151,740.238464
	C184.532379,742.379578 180.887878,744.580261 176.991791,746.160645
	C168.116638,749.760803 159.474915,754.399658 149.485641,753.963623
	C148.206055,753.907715 146.383987,752.834839 145.833817,751.726440
	C142.598892,745.208984 137.534149,741.839233 130.273590,742.275452
	C122.954094,742.715088 118.474632,746.978516 115.362907,753.880859
	C114.308617,754.045044 113.965157,754.014648 113.639786,753.633423
	C113.064629,752.425476 112.666687,751.195312 111.848846,750.767151
	C99.433456,744.267151 94.020279,733.064575 91.110031,720.163147
	C88.632843,709.181702 88.827202,698.153076 90.345253,687.052490
	C91.273773,680.262756 91.065125,680.234192 84.017906,678.215332
	C84.567528,676.194336 85.117165,674.173401 86.036964,671.963745
z"/>
<path fill="#4D5DFB" opacity="1.000000" stroke="none"
	d="
M381.118225,671.144165
	C391.503448,661.145020 397.399658,649.809143 392.753296,635.539001
	C390.934814,629.954102 387.416046,624.922791 384.402039,619.120361
	C385.517761,617.867126 387.094604,616.096008 388.690308,614.303650
	C406.917267,633.538452 407.866730,659.927551 383.819458,679.199280
	C369.167358,690.941650 351.842194,696.554749 333.313812,701.198486
	C333.036682,698.375732 332.803375,695.999207 332.543854,693.355774
	C350.172974,688.943420 366.977264,683.326660 381.118225,671.144165
z"/>
<path fill="#4B5CFA" opacity="1.000000" stroke="none"
	d="
M83.893593,678.560547
	C91.065125,680.234192 91.273773,680.262756 90.345253,687.052490
	C88.827202,698.153076 88.632843,709.181702 91.110031,720.163147
	C94.020279,733.064575 99.433456,744.267151 111.848846,750.767151
	C112.666687,751.195312 113.064629,752.425476 113.465668,753.947327
	C113.265053,755.724426 113.256660,756.836853 113.248260,757.949219
	C111.143486,757.624634 108.706215,757.876953 106.985764,756.885376
	C90.963554,747.651917 84.549767,732.577637 82.238586,715.167236
	C80.623764,703.002502 81.383286,690.913879 83.893593,678.560547
z"/>
<path fill="#FCFCFE" opacity="1.000000" stroke="none"
	d="
M316.782898,664.783020
	C316.324463,666.462280 315.571228,667.881592 314.392883,669.651123
	C312.978485,670.000916 311.989227,670.000488 310.634064,670.000122
	C309.178741,670.333435 308.089386,670.666687 306.554901,670.999512
	C304.918945,670.948303 303.728119,670.897644 302.537262,670.846924
	C305.378265,667.310791 308.219238,663.774719 311.320801,660.057251
	C313.171082,658.864990 314.760834,657.854004 316.488068,656.755615
	C316.488068,659.202148 316.488068,661.862610 316.782898,664.783020
z"/>
<path fill="#5363FB" opacity="1.000000" stroke="none"
	d="
M355.473816,588.689819
	C353.405975,590.553833 351.548309,592.130310 349.690674,593.706787
	C349.116394,593.290527 348.542114,592.874268 347.967865,592.458008
	C348.350861,589.804382 348.733856,587.150757 349.328796,583.028748
	C352.047943,585.327881 353.865997,586.865112 355.473816,588.689819
z"/>
<path fill="#FEFEFE" opacity="1.000000" stroke="none"
	d="
M362.648438,553.490356
	C360.639343,556.062195 358.780670,558.308777 356.984894,560.479431
	C353.006836,557.957092 352.140625,555.165771 354.850677,553.151550
	C356.868500,551.651855 360.186432,549.719910 362.648438,553.490356
z"/>
<path fill="#FEFEFE" opacity="1.000000" stroke="none"
	d="
M113.539032,758.378723
	C113.256660,756.836853 113.265053,755.724426 113.447571,754.298218
	C113.965157,754.014648 114.308617,754.045044 115.165787,754.146362
	C115.644257,755.840454 115.609024,757.463562 115.544617,759.495483
	C114.953545,759.538940 114.391663,759.173584 113.539032,758.378723
z"/>
<path fill="#FEFEFE" opacity="1.000000" stroke="none"
	d="
M170.932907,528.224976
	C170.493118,528.711182 170.092972,528.760620 169.398590,528.737122
	C168.644836,527.518005 168.208649,525.385681 167.722260,525.374084
	C161.029465,525.215637 154.358826,521.075256 147.584778,525.785095
	C143.097839,528.904846 139.029831,526.680176 137.885941,521.451111
	C137.607376,520.177795 135.643188,518.070007 135.219315,518.241150
	C133.434494,518.961853 130.554367,520.415833 130.567642,521.572937
	C130.642380,528.085022 124.128082,529.805237 121.567802,534.822327
	C125.042519,529.552429 119.778351,526.299561 119.563408,522.294006
	C119.423111,519.679565 121.709198,516.034546 124.008247,514.373169
	C129.139755,510.664825 135.182343,508.232941 140.411209,504.637421
	C143.253433,502.683044 145.754929,499.707550 147.362854,496.643127
	C148.752899,493.993927 147.137939,491.561218 143.365601,490.633850
	C142.973175,489.504364 143.026001,488.752594 143.078827,488.000793
	C144.357910,486.878387 146.244522,486.002319 146.815887,484.592987
	C150.132278,476.412964 162.693024,472.278595 170.320908,476.757599
	C172.537415,478.059143 175.457642,478.148285 178.042068,478.842346
	C179.619995,479.266144 181.736252,479.336487 182.572006,480.389771
	C183.345596,481.364716 182.736832,483.436523 182.736832,485.440338
	C183.828415,485.312225 185.182388,485.197845 186.521591,484.988892
	C194.587616,483.730255 201.019302,487.112640 204.832565,494.572632
	C205.583969,496.042603 206.695938,497.337616 207.371124,498.835266
	C208.893555,502.212158 209.811615,506.009430 214.989334,502.475525
	C215.810120,501.915253 219.671814,504.220520 220.702515,506.018066
	C221.675003,507.714172 221.648254,511.116882 220.533051,512.675781
	C216.209320,518.719849 209.863617,521.816956 202.567825,522.990479
	C201.440750,523.171753 200.160233,523.110107 199.230881,523.646423
	C197.758881,524.495789 196.011932,526.945557 195.278610,526.630371
	C192.455688,525.417053 189.375275,523.860107 187.531433,521.529114
	C184.657486,517.895813 182.624023,518.715515 179.808792,521.255920
	C178.419083,522.509888 176.334229,522.960205 174.782562,524.077759
	C173.359802,525.102478 172.230911,526.535217 170.932907,528.224976
z"/>
<path fill="#FEFEFE" opacity="1.000000" stroke="none"
	d="
M35.370270,604.037048
	C35.125244,602.827881 35.226841,601.655823 35.555641,600.212585
	C37.061409,600.255493 38.339966,600.569641 38.550415,600.621338
	C41.686066,599.056396 44.291035,598.234802 46.235783,596.618713
	C47.547314,595.528809 48.950890,592.986206 48.525448,591.672546
	C47.401680,588.202515 48.924294,586.409180 51.211861,584.420776
	C55.775486,580.454041 60.537189,577.935974 66.915215,579.889221
	C69.164864,580.578186 71.802818,579.999329 73.699623,579.999329
	C74.425247,576.625488 74.097755,572.442566 75.780579,571.346741
	C81.901657,567.360718 87.785492,566.846252 90.671249,568.697693
	C89.606300,571.081848 88.889244,573.731689 87.366272,575.783142
	C86.024269,577.590820 83.724594,578.663513 81.955414,580.185852
	C80.562210,581.384705 78.702950,582.593079 78.257759,584.143799
	C77.972984,585.135742 80.140076,586.652405 80.749840,588.123718
	C81.594788,590.162537 82.865906,592.555481 82.468689,594.491943
	C79.951164,606.765625 79.237190,618.627563 84.709236,630.585571
	C86.649239,634.825073 87.280434,641.049255 85.557686,645.117615
	C84.299416,648.088989 77.869881,650.968445 74.361603,650.356567
	C70.009422,649.597534 65.737122,645.685913 62.574348,642.121033
	C61.300472,640.685242 63.059464,636.558716 63.484570,633.301025
	C61.856606,633.301025 59.799191,632.657104 58.747459,633.412781
	C54.260220,636.637085 51.313389,634.423218 48.588833,631.059814
	C45.595203,627.364319 42.653999,623.718933 43.941879,618.299866
	C45.645458,611.131592 40.245457,607.791443 35.370270,604.037048
M50.361378,600.936462
	C50.107178,600.039978 49.852974,599.143555 49.598774,598.247070
	C49.025799,598.548828 48.452824,598.850525 47.879845,599.152283
	C48.544960,599.902405 49.210075,600.652466 50.361378,600.936462
z"/>
<path fill="#4F5EFA" opacity="1.000000" stroke="none"
	d="
M241.174118,510.092163
	C234.700256,511.509277 230.190536,509.005280 225.572174,504.245331
	C213.566864,491.871643 199.899933,481.561554 183.233246,474.624939
	C182.120956,474.263611 181.560928,474.168671 181.000885,474.073730
	C169.317642,469.385620 157.471558,467.873962 145.633240,473.198181
	C140.843201,475.352448 139.504807,470.835907 135.902542,469.624146
	C152.133835,459.589142 168.400909,460.387451 184.837875,466.687195
	C205.555771,474.627625 221.837723,488.800629 236.943985,504.531372
	C238.212708,505.852478 239.442215,507.211304 240.931732,509.049377
	C241.173737,509.728149 241.173935,509.910156 241.174118,510.092163
z"/>
<path fill="#4958FB" opacity="1.000000" stroke="none"
	d="
M142.975708,487.629883
	C143.026001,488.752594 142.973175,489.504364 142.993530,490.627747
	C141.804794,498.326202 137.537582,502.918396 130.334702,504.612091
	C124.143532,506.067932 119.314568,503.478027 115.364754,498.931549
	C111.262497,494.209595 110.602188,487.052094 113.592499,481.203522
	C116.291290,475.925110 122.470215,472.399017 128.430908,473.156525
	C135.014740,473.993195 139.900696,477.281158 142.034073,483.886139
	C142.389282,484.985962 142.596802,486.133484 142.975708,487.629883
z"/>
<path fill="#FDFDFE" opacity="1.000000" stroke="none"
	d="
M102.000000,681.000000
	C102.007545,680.307373 102.015099,679.614746 102.041351,678.576904
	C99.536804,672.595154 97.167358,666.823059 90.115662,664.746704
	C89.285469,662.937805 88.706100,661.335815 88.442337,659.372437
	C90.617783,659.653870 92.477615,660.296753 95.837074,661.458008
	C93.789658,657.031372 92.394821,654.015686 91.000000,651.000000
	C92.226761,650.408081 93.453514,649.816101 94.995346,649.040405
	C103.465317,667.756165 114.983665,684.228394 130.794632,698.420044
	C130.997299,700.394714 130.998642,701.697327 130.647247,702.963257
	C129.160614,702.262024 127.890579,701.753601 126.917580,700.904724
	C123.615578,698.024292 120.752632,695.068970 115.767738,694.322693
	C113.512459,693.984985 110.748741,689.531799 110.237549,686.593933
	C109.116028,680.148376 108.534630,679.276672 102.000000,681.000000
z"/>
<path fill="#FEFEFE" opacity="1.000000" stroke="none"
	d="
M90.616898,651.006165
	C92.394821,654.015686 93.789658,657.031372 95.837074,661.458008
	C92.477615,660.296753 90.617783,659.653870 88.378967,659.005493
	C87.801735,657.588623 87.150887,656.040527 87.524826,654.801941
	C87.949768,653.394409 89.290924,652.263489 90.616898,651.006165
z"/>
<path fill="#FEFEFE" opacity="1.000000" stroke="none"
	d="
M241.422852,510.288208
	C241.173935,509.910156 241.173737,509.728149 241.188721,509.273499
	C242.432022,509.417023 243.660141,509.833191 244.888245,510.249359
	C244.667603,510.777344 244.446945,511.305298 244.226288,511.833282
	C243.374725,511.383606 242.523163,510.933929 241.422852,510.288208
z"/>
<path fill="#FEFEFE" opacity="1.000000" stroke="none"
	d="
M181.006866,474.409912
	C181.560928,474.168671 182.120956,474.263611 182.871948,474.573059
	C182.703552,475.362213 182.344177,475.936890 181.984802,476.511566
	C181.660828,475.923065 181.336838,475.334564 181.006866,474.409912
z"/>
<path fill="#F8F9FE" opacity="1.000000" stroke="none"
	d="
M474.426147,640.702576
	C467.138214,641.802612 460.200165,642.738098 452.682343,643.751831
	C452.682343,627.134094 452.682343,611.927368 452.682343,596.802429
	C468.940887,593.558899 480.227753,598.184204 484.504120,609.593140
	C488.972778,621.515015 484.814911,634.741150 474.426147,640.702576
z"/>
<path fill="#F8F9FE" opacity="1.000000" stroke="none"
	d="
M619.289551,620.606079
	C624.299194,613.836914 630.189575,612.104126 636.244263,615.325623
	C642.576660,618.694946 645.399231,627.465759 642.723511,635.459412
	C640.676575,641.574524 635.479858,645.390503 629.687500,645.031738
	C623.535217,644.650696 618.576111,640.326721 617.947632,633.596802
	C617.560669,629.453430 618.677490,625.169617 619.289551,620.606079
z"/>
<path fill="#F7F8FE" opacity="1.000000" stroke="none"
	d="
M732.107849,624.149536
	C729.497314,624.151978 727.369812,624.151978 725.211182,624.151978
	C725.733643,617.682312 730.377686,613.644226 736.879028,613.614258
	C743.404663,613.584167 747.481140,617.299194 747.870239,624.147156
	C742.762512,624.147156 737.676697,624.147156 732.107849,624.149536
z"/>
<path fill="#F8F9FE" opacity="1.000000" stroke="none"
	d="
M799.870239,620.760498
	C799.319458,622.125183 798.683533,623.895996 797.995483,623.916504
	C791.067932,624.122803 784.131775,624.042114 777.150330,624.042114
	C777.853394,618.296692 780.693054,615.035217 785.576599,613.968933
	C791.940308,612.579468 796.276855,614.531738 799.870239,620.760498
z"/>
<path fill="#F7F8FE" opacity="1.000000" stroke="none"
	d="
M526.009338,624.138184
	C521.883789,624.145020 518.250000,624.145020 514.577515,624.145020
	C515.284912,617.601440 519.796692,613.699890 526.325195,613.633301
	C532.627869,613.568970 536.485046,617.025452 537.205078,624.131348
	C533.608398,624.131348 530.054688,624.131348 526.009338,624.138184
z"/>
<path fill="#F7F8FE" opacity="1.000000" stroke="none"
	d="
M1213.326050,616.679077
	C1214.661865,619.050232 1215.711060,621.145142 1217.074829,623.868469
	C1208.380005,623.868469 1200.806519,623.868469 1193.196777,623.868469
	C1194.550903,614.224365 1204.130127,610.741272 1213.326050,616.679077
z"/>
<path fill="#F8F9FE" opacity="1.000000" stroke="none"
	d="
M581.399719,613.908569
	C586.473083,615.528687 589.348938,618.516602 589.795227,623.849060
	C581.874268,623.849060 574.167358,623.849060 566.408936,623.849060
	C567.895020,616.112671 572.084961,613.304626 581.399719,613.908569
z"/>
<path fill="#F7F8FE" opacity="1.000000" stroke="none"
	d="
M1063.621460,624.114258
	C1057.047607,624.116699 1050.927490,624.116699 1044.726685,624.116699
	C1046.078979,616.984070 1050.206787,613.556885 1056.819214,613.695801
	C1063.240967,613.830566 1066.662964,617.034973 1067.489380,623.853088
	C1066.345825,623.939758 1065.210571,624.025818 1063.621460,624.114258
z"/>
<path fill="#FCFCFE" opacity="1.000000" stroke="none"
	d="
M124.780228,661.171631
	C114.308128,645.589600 107.036148,628.978638 104.519104,610.719788
	C102.021790,592.603943 103.170807,592.430481 119.590225,592.878784
	C148.036285,593.655396 172.265121,605.515625 192.174942,625.273438
	C202.258621,635.280029 211.044739,646.816040 219.158661,658.532288
	C230.552612,674.984680 241.141937,691.925659 260.050476,703.294128
	C244.545044,704.797729 231.562057,702.268188 219.938690,693.988892
	C211.667816,688.097534 203.579071,681.936584 195.127838,676.318909
	C191.449387,673.873840 187.203186,672.045532 182.967896,670.735474
	C177.656036,669.092407 174.765152,672.082153 176.376877,677.465271
	C177.358856,680.745117 179.236877,683.794617 180.960037,686.805969
	C183.742737,691.668945 182.658752,695.049805 177.096970,695.593079
	C172.948410,695.998352 168.368271,695.479980 164.444305,694.076111
	C148.667725,688.431641 137.208694,677.127136 127.087852,664.261108
	C126.367104,663.344910 125.687660,662.396179 124.780228,661.171631
z"/>
<path fill="#FCFCFE" opacity="1.000000" stroke="none"
	d="
M131.000000,703.000000
	C130.998642,701.697327 130.997299,700.394714 130.993958,698.703369
	C148.696869,712.424683 168.529877,721.705383 191.141449,724.457214
	C216.350937,727.525391 239.885544,723.153748 261.154816,708.541809
	C262.968140,707.296082 266.123535,706.887756 268.293030,707.461243
	C280.575104,710.707886 292.875427,711.644958 305.363403,709.032593
	C306.663605,708.760498 308.254974,708.661377 309.135010,707.853943
	C310.964447,706.175476 313.557678,704.145203 313.679810,702.128845
	C313.797852,700.179749 311.657288,697.206726 309.718781,696.190552
	C304.431366,693.418701 298.718018,691.463501 293.192780,689.138794
	C291.393311,688.381653 289.653595,687.482483 287.024292,686.241333
	C290.242432,683.146423 292.955170,680.537659 296.356934,677.908936
	C298.030670,678.259399 299.015320,678.629700 300.000885,679.407715
	C300.334534,682.210266 300.667267,684.605164 301.033020,687.330078
	C301.632874,688.315674 302.199738,688.971252 302.766602,689.626831
	C303.177765,689.084595 303.588898,688.542297 304.333344,688.000000
	C305.111115,688.000000 305.555542,688.000000 306.346375,687.966553
	C307.795166,686.955444 308.897583,685.977722 310.153809,684.647217
	C310.871735,680.862976 311.435852,677.431519 312.493225,673.992249
	C313.647430,673.904236 314.308441,673.823914 314.969452,673.743652
	C321.095886,701.576111 322.299561,729.222839 310.325958,755.932251
	C301.753998,775.053650 284.232086,783.540649 263.581543,779.494080
	C252.492691,777.321167 242.100693,773.159302 232.834915,766.894043
	C222.016479,759.578735 211.813522,751.353210 200.771774,743.095032
	C205.753510,739.438660 209.475830,736.706665 213.198151,733.974670
	C213.125351,733.475586 213.052551,732.976440 212.979752,732.477356
	C207.883423,733.200867 202.787781,733.929382 197.690170,734.643860
	C196.631271,734.792236 194.977280,735.384949 194.593964,734.931152
	C191.117218,730.815430 186.096924,731.776794 181.127945,730.386597
	C177.638702,725.966736 175.284698,725.794861 171.568954,729.398804
	C174.953857,734.433777 174.615433,735.667542 168.954315,736.616028
	C169.280243,734.543335 169.559143,732.675781 169.869598,730.813538
	C170.686203,725.914978 168.754547,723.565979 163.867950,722.922729
	C161.999252,722.676758 160.198303,721.688171 158.441315,720.875977
	C155.922974,719.711853 153.450500,718.442078 151.000397,717.138550
	C148.445816,715.779358 145.890518,714.408325 143.430695,712.888489
	C141.481400,711.684021 139.607666,710.331543 137.823349,708.892334
	C135.485626,707.006653 133.268814,704.971069 131.000000,703.000000
z"/>
<path fill="#F7F8FE" opacity="1.000000" stroke="none"
	d="
M251.009109,622.787842
	C251.591278,611.637634 250.542679,610.427551 239.630768,608.399536
	C238.138702,608.122192 235.640549,606.986938 235.641357,606.251099
	C235.643066,604.709839 236.650818,602.281128 237.867889,601.803711
	C240.964493,600.589111 244.771439,598.999512 247.621658,599.840088
	C252.235916,601.200867 257.196533,603.556458 260.417999,606.987610
	C265.937958,612.866760 270.663361,619.632874 274.904205,626.529663
	C278.646851,632.616211 276.809082,636.050171 270.049591,638.056030
	C260.718689,640.824768 251.903427,633.966797 251.009109,622.787842
z"/>
<path fill="#F7F8FE" opacity="1.000000" stroke="none"
	d="
M239.544342,621.240967
	C238.452286,619.396790 237.216019,617.657349 237.166733,615.884949
	C237.145874,615.134949 239.952301,613.404785 240.882599,613.743469
	C242.239258,614.237488 244.179245,616.605225 243.872650,617.442505
	C243.296600,619.015503 241.291168,620.065125 239.544342,621.240967
z"/>
<path fill="#FDFDFE" opacity="1.000000" stroke="none"
	d="
M300.000000,679.000000
	C299.015320,678.629700 298.030670,678.259399 296.651367,677.797607
	C298.170471,675.527710 300.084229,673.349243 302.267639,671.008850
	C303.728119,670.897644 304.918945,670.948303 306.520020,671.344971
	C304.620148,674.127258 302.310089,676.563599 300.000000,679.000000
z"/>
<path fill="#FEFEFE" opacity="1.000000" stroke="none"
	d="
M130.647247,702.963257
	C133.268814,704.971069 135.485626,707.006653 137.823349,708.892334
	C139.607666,710.331543 141.481400,711.684021 143.430695,712.888489
	C145.890518,714.408325 148.445816,715.779358 151.000397,717.138550
	C153.450500,718.442078 155.922974,719.711853 158.441315,720.875977
	C160.198303,721.688171 161.999252,722.676758 163.867950,722.922729
	C168.754547,723.565979 170.686203,725.914978 169.869598,730.813538
	C169.559143,732.675781 169.280243,734.543335 168.954315,736.616028
	C174.615433,735.667542 174.953857,734.433777 171.568954,729.398804
	C175.284698,725.794861 177.638702,725.966736 180.683502,730.351074
	C181.024033,731.089478 181.229767,731.531189 181.581467,732.304810
	C180.852402,733.554871 179.412811,734.355530 179.193329,735.410156
	C177.684570,742.660095 174.194885,743.506531 168.002777,744.088196
	C166.032639,744.273254 164.172226,745.532654 162.239746,746.240906
	C160.609009,746.838562 158.562439,748.249634 157.366882,747.739014
	C152.930679,745.844360 148.814438,743.216187 144.488602,741.041382
	C142.107788,739.844421 139.507721,738.079407 137.078186,738.187134
	C131.583496,738.430908 125.900391,735.289551 120.565514,738.917114
	C118.974434,739.999023 117.146797,740.754700 115.636864,741.928955
	C113.616753,743.500122 111.536598,746.874207 109.093567,744.053345
	C106.881332,741.498962 101.945526,739.013062 105.712997,734.138733
	C96.515366,729.654541 93.927284,717.954346 100.734344,711.650513
	C100.350586,711.135681 100.073235,710.379028 99.549698,710.120117
	C93.683685,707.218689 93.302284,702.014038 94.072632,696.574707
	C94.781738,691.567871 94.907288,686.066223 100.986824,683.824707
	C101.506561,683.633057 101.662010,682.453369 101.993347,681.366333
	C108.534630,679.276672 109.116028,680.148376 110.237549,686.593933
	C110.748741,689.531799 113.512459,693.984985 115.767738,694.322693
	C120.752632,695.068970 123.615578,698.024292 126.917580,700.904724
	C127.890579,701.753601 129.160614,702.262024 130.647247,702.963257
z"/>
<path fill="#FDFDFE" opacity="1.000000" stroke="none"
	d="
M315.101990,673.462402
	C314.308441,673.823914 313.647430,673.904236 312.221191,673.760315
	C311.304016,672.357422 311.152008,671.178711 311.000000,670.000000
	C311.989227,670.000488 312.978485,670.000916 314.338135,670.001404
	C314.883881,671.061340 315.059174,672.121216 315.101990,673.462402
z"/>
<path fill="#FDFDFE" opacity="1.000000" stroke="none"
	d="
M339.312317,660.050659
	C339.673492,661.666504 339.801270,663.008545 340.003815,665.135986
	C336.553070,661.114319 336.536072,660.845154 339.312317,660.050659
z"/>
<path fill="#FDFDFE" opacity="1.000000" stroke="none"
	d="
M345.955994,630.337402
	C347.840179,630.380371 349.424957,630.618103 351.009735,630.855835
	C350.768890,631.565308 350.528046,632.274780 350.287201,632.984253
	C348.743652,632.166931 347.200104,631.349609 345.955994,630.337402
z"/>
<path fill="#FDFDFE" opacity="1.000000" stroke="none"
	d="
M335.238708,674.086060
	C336.001709,673.696655 336.681183,673.615479 337.360657,673.534302
	C337.267670,674.080750 337.174683,674.627258 337.081726,675.173706
	C336.439545,674.913940 335.797394,674.654114 335.238708,674.086060
z"/>
<path fill="#FEFEFE" opacity="1.000000" stroke="none"
	d="
M310.634064,670.000122
	C311.152008,671.178711 311.304016,672.357422 311.727997,673.768066
	C311.435852,677.431519 310.871735,680.862976 309.807434,684.680664
	C308.204834,686.044556 307.102417,687.022278 306.000000,688.000000
	C305.555542,688.000000 305.111115,688.000000 304.038513,687.874512
	C302.606903,687.499329 301.803436,687.249695 301.000000,687.000000
	C300.667267,684.605164 300.334534,682.210266 300.000916,679.407715
	C302.310089,676.563599 304.620148,674.127258 306.965118,671.345459
	C308.089386,670.666687 309.178741,670.333435 310.634064,670.000122
z"/>
<path fill="#FCFCFE" opacity="1.000000" stroke="none"
	d="
M50.118286,601.169556
	C49.210075,600.652466 48.544960,599.902405 47.879845,599.152283
	C48.452824,598.850525 49.025799,598.548828 49.598774,598.247070
	C49.852974,599.143555 50.107178,600.039978 50.118286,601.169556
z"/>
<path fill="#FDFDFE" opacity="1.000000" stroke="none"
	d="
M306.346375,687.966553
	C307.102417,687.022278 308.204834,686.044556 309.653625,685.033447
	C308.897583,685.977722 307.795166,686.955444 306.346375,687.966553
z"/>
<path fill="#FDFDFE" opacity="1.000000" stroke="none"
	d="
M301.033020,687.330078
	C301.803436,687.249695 302.606903,687.499329 303.705200,687.874512
	C303.588898,688.542297 303.177765,689.084595 302.766602,689.626831
	C302.199738,688.971252 301.632874,688.315674 301.033020,687.330078
z"/>
</svg>
